<svg xmlns="http://www.w3.org/2000/svg" xmlns:xlink="http://www.w3.org/1999/xlink" width="867.816" height="361.318" viewBox="0 0 867.816 361.318">
  <defs>
    <linearGradient id="linear-gradient" x1="0.105" y1="0.474" x2="1.103" y2="0.474" gradientUnits="objectBoundingBox">
      <stop offset="0" stop-color="#34254c"/>
      <stop offset="1" stop-color="#51397f"/>
    </linearGradient>
    <linearGradient id="linear-gradient-2" x1="0.182" y1="0.496" x2="0.772" y2="0.496" gradientUnits="objectBoundingBox">
      <stop offset="0" stop-color="#e1dae5"/>
      <stop offset="1" stop-color="#f7f4f9"/>
    </linearGradient>
    <linearGradient id="linear-gradient-3" x1="0.022" y1="0.205" x2="1.149" y2="0.205" gradientUnits="objectBoundingBox">
      <stop offset="0" stop-color="#c8b8d3"/>
      <stop offset="1" stop-color="#c8b8d3" stop-opacity="0.302"/>
    </linearGradient>
    <linearGradient id="linear-gradient-4" x1="-0.195" y1="0.445" x2="0.973" y2="0.445" xlink:href="#linear-gradient-3"/>
    <linearGradient id="linear-gradient-5" x1="-0.144" y1="0.463" x2="1.092" y2="0.463" gradientUnits="objectBoundingBox">
      <stop offset="0" stop-color="#c8b8d3" stop-opacity="0.902"/>
      <stop offset="1" stop-color="#c8b8d3" stop-opacity="0.302"/>
    </linearGradient>
    <linearGradient id="linear-gradient-6" x1="0.006" y1="0.466" x2="1.124" y2="0.466" xlink:href="#linear-gradient-5"/>
    <linearGradient id="linear-gradient-7" x1="0.008" y1="0.536" x2="1.024" y2="0.536" xlink:href="#linear-gradient-5"/>
    <linearGradient id="linear-gradient-8" x1="1.167" y1="0.42" x2="0.189" y2="0.642" gradientUnits="objectBoundingBox">
      <stop offset="0" stop-color="#fff"/>
      <stop offset="1" stop-color="#fff" stop-opacity="0"/>
    </linearGradient>
    <linearGradient id="linear-gradient-9" x1="0.421" y1="-0.023" x2="0.994" y2="0.639" xlink:href="#linear-gradient-3"/>
    <linearGradient id="linear-gradient-10" x1="1.116" y1="-0.295" x2="0.583" y2="1.264" xlink:href="#linear-gradient-8"/>
    <linearGradient id="linear-gradient-11" x1="-0.155" y1="0.536" x2="0.85" y2="0.536" xlink:href="#linear-gradient"/>
    <linearGradient id="linear-gradient-12" x1="0.019" y1="0.629" x2="1.238" y2="0.482" gradientUnits="objectBoundingBox">
      <stop offset="0" stop-color="#2d2244"/>
      <stop offset="1" stop-color="#3e2c5e" stop-opacity="0"/>
    </linearGradient>
    <linearGradient id="linear-gradient-13" x1="0.558" y1="0.066" x2="1.214" y2="0.889" gradientUnits="objectBoundingBox">
      <stop offset="0" stop-color="#ce1d3b"/>
      <stop offset="1" stop-color="#ed202e"/>
    </linearGradient>
    <linearGradient id="linear-gradient-14" x1="0.472" y1="-0.033" x2="0.859" y2="0.619" xlink:href="#linear-gradient-13"/>
    <linearGradient id="linear-gradient-15" x1="0.114" y1="0.523" x2="0.884" y2="0.467" gradientUnits="objectBoundingBox">
      <stop offset="0" stop-color="#a193ad"/>
      <stop offset="0.996" stop-color="#cec4d6"/>
    </linearGradient>
    <linearGradient id="linear-gradient-16" x1="0.678" y1="0.9" x2="0.573" y2="-0.03" xlink:href="#linear-gradient-2"/>
    <linearGradient id="linear-gradient-17" x1="0.18" y1="0.995" x2="0.713" y2="0.294" gradientUnits="objectBoundingBox">
      <stop offset="0" stop-color="#cec4d6"/>
      <stop offset="0.996" stop-color="#cec4d6" stop-opacity="0"/>
    </linearGradient>
    <linearGradient id="linear-gradient-18" x1="1.499" y1="0.902" x2="1.146" y2="0.154" gradientUnits="objectBoundingBox">
      <stop offset="0" stop-color="#34254c"/>
      <stop offset="1" stop-color="#432a68"/>
    </linearGradient>
    <linearGradient id="linear-gradient-19" x1="1.477" y1="0.914" x2="1.125" y2="0.175" xlink:href="#linear-gradient-18"/>
    <linearGradient id="linear-gradient-20" x1="2.004" y1="1.388" x2="1.703" y2="-0.039" xlink:href="#linear-gradient-15"/>
    <linearGradient id="linear-gradient-21" x1="1.034" y1="1.218" x2="1.923" y2="0.266" gradientUnits="objectBoundingBox">
      <stop offset="0" stop-color="#3492b7"/>
      <stop offset="1" stop-color="#4cc8e5"/>
    </linearGradient>
    <linearGradient id="linear-gradient-22" x1="0.992" y1="0.591" x2="1.992" y2="0.591" gradientUnits="objectBoundingBox">
      <stop offset="0" stop-color="#d733db"/>
      <stop offset="1" stop-color="#f43ef9"/>
    </linearGradient>
    <linearGradient id="linear-gradient-23" x1="0.587" y1="0.723" x2="1.491" y2="0.489" gradientUnits="objectBoundingBox">
      <stop offset="0" stop-color="#1e45a5"/>
      <stop offset="1" stop-color="#2265c6"/>
    </linearGradient>
    <linearGradient id="linear-gradient-24" x1="0.172" y1="0.623" x2="1.137" y2="0.192" xlink:href="#linear-gradient"/>
    <linearGradient id="linear-gradient-25" x1="0.173" y1="0.497" x2="1.178" y2="0.497" xlink:href="#linear-gradient"/>
    <linearGradient id="linear-gradient-26" x1="1.415" y1="0.347" x2="1.002" y2="0.409" xlink:href="#linear-gradient-2"/>
    <linearGradient id="linear-gradient-27" x1="1.196" y1="0.544" x2="1.568" y2="0.498" xlink:href="#linear-gradient-2"/>
    <linearGradient id="linear-gradient-28" x1="0.757" y1="0.276" x2="1.763" y2="0.276" xlink:href="#linear-gradient-2"/>
    <linearGradient id="linear-gradient-29" x1="0.258" y1="0.579" x2="1.142" y2="0.238" xlink:href="#linear-gradient-2"/>
    <linearGradient id="linear-gradient-30" x1="0.618" y1="0.882" x2="0.896" y2="-0.032" gradientUnits="objectBoundingBox">
      <stop offset="0" stop-color="#c8b8d3"/>
      <stop offset="1" stop-color="#c8b8d3" stop-opacity="0"/>
    </linearGradient>
    <linearGradient id="linear-gradient-31" x1="0.377" y1="0.823" x2="0.924" y2="0.502" xlink:href="#linear-gradient-2"/>
    <linearGradient id="linear-gradient-32" x1="0.123" y1="0.588" x2="1.293" y2="0.33" gradientUnits="objectBoundingBox">
      <stop offset="0" stop-color="#201d21"/>
      <stop offset="1" stop-color="#524b56"/>
    </linearGradient>
    <linearGradient id="linear-gradient-33" x1="-0.041" y1="0.504" x2="0.642" y2="0.462" gradientUnits="objectBoundingBox">
      <stop offset="0" stop-color="#111011"/>
      <stop offset="1" stop-color="#111011" stop-opacity="0"/>
    </linearGradient>
    <linearGradient id="linear-gradient-34" x1="0.786" y1="-0.24" x2="1.124" y2="1.313" gradientUnits="objectBoundingBox">
      <stop offset="0" stop-color="#ede7f2"/>
      <stop offset="1" stop-color="#ede7f2" stop-opacity="0"/>
    </linearGradient>
    <linearGradient id="linear-gradient-35" x1="1.98" y1="-0.595" x2="4.063" y2="2.279" xlink:href="#linear-gradient-34"/>
    <linearGradient id="linear-gradient-36" x1="0.042" y1="0.649" x2="1.07" y2="0.649" xlink:href="#linear-gradient"/>
    <linearGradient id="linear-gradient-37" x1="0.895" y1="0.808" x2="0.002" y2="-0.378" xlink:href="#linear-gradient"/>
    <linearGradient id="linear-gradient-38" x1="1.467" y1="1.184" x2="1.033" y2="0.128" xlink:href="#linear-gradient"/>
    <linearGradient id="linear-gradient-39" x1="0.937" y1="0.342" x2="2.08" y2="0.342" xlink:href="#linear-gradient"/>
    <linearGradient id="linear-gradient-40" x1="0.18" y1="0.66" x2="1.164" y2="0.23" xlink:href="#linear-gradient-15"/>
    <linearGradient id="linear-gradient-41" x1="1.081" y1="0.736" x2="0.409" y2="0.178" xlink:href="#linear-gradient-2"/>
    <linearGradient id="linear-gradient-42" x1="0.942" y1="-0.107" x2="1.914" y2="-0.107" xlink:href="#linear-gradient-2"/>
    <linearGradient id="linear-gradient-43" x1="0.802" y1="-0.182" x2="1.796" y2="-0.182" xlink:href="#linear-gradient-2"/>
    <linearGradient id="linear-gradient-44" x1="0.477" y1="-0.088" x2="1.448" y2="-0.088" xlink:href="#linear-gradient-2"/>
    <linearGradient id="linear-gradient-45" x1="0.335" y1="-0.24" x2="1.316" y2="-0.24" xlink:href="#linear-gradient-2"/>
    <linearGradient id="linear-gradient-46" x1="2.211" y1="-0.743" x2="1.066" y2="0.682" xlink:href="#linear-gradient-3"/>
    <linearGradient id="linear-gradient-47" x1="1.724" y1="0.654" x2="0.607" y2="0.381" xlink:href="#linear-gradient-3"/>
    <linearGradient id="linear-gradient-48" x1="1.339" y1="0.661" x2="1.528" y2="-0.369" xlink:href="#linear-gradient"/>
    <linearGradient id="linear-gradient-49" x1="1.265" y1="-0.431" x2="2.288" y2="-0.431" xlink:href="#linear-gradient"/>
    <linearGradient id="linear-gradient-50" x1="0.925" y1="-0.372" x2="1.928" y2="-0.372" xlink:href="#linear-gradient"/>
    <linearGradient id="linear-gradient-51" x1="0.96" y1="-0.352" x2="1.963" y2="-0.352" xlink:href="#linear-gradient"/>
    <linearGradient id="linear-gradient-52" x1="0.676" y1="-0.413" x2="1.672" y2="-0.413" xlink:href="#linear-gradient"/>
    <linearGradient id="linear-gradient-53" x1="-25.507" y1="1.555" x2="-26.145" y2="0.974" xlink:href="#linear-gradient-2"/>
    <linearGradient id="linear-gradient-54" x1="-157.548" y1="4.179" x2="-156.495" y2="4.179" xlink:href="#linear-gradient-2"/>
    <linearGradient id="linear-gradient-55" x1="-143.059" y1="4.653" x2="-142.046" y2="4.653" xlink:href="#linear-gradient-2"/>
    <linearGradient id="linear-gradient-56" x1="-102.724" y1="3.607" x2="-101.67" y2="3.607" xlink:href="#linear-gradient-2"/>
    <linearGradient id="linear-gradient-57" x1="-82.603" y1="4.201" x2="-81.56" y2="4.201" xlink:href="#linear-gradient-2"/>
    <linearGradient id="linear-gradient-58" x1="-156.904" y1="1.669" x2="-157.783" y2="3.153" xlink:href="#linear-gradient-3"/>
    <linearGradient id="linear-gradient-59" x1="-49.681" y1="1.477" x2="-50.53" y2="1.189" xlink:href="#linear-gradient-3"/>
    <linearGradient id="linear-gradient-60" x1="-132.106" y1="5.027" x2="-131.92" y2="4.003" xlink:href="#linear-gradient"/>
    <linearGradient id="linear-gradient-61" x1="-193.221" y1="6.763" x2="-192.255" y2="6.763" xlink:href="#linear-gradient"/>
    <linearGradient id="linear-gradient-62" x1="-162.079" y1="5.758" x2="-161.087" y2="5.758" xlink:href="#linear-gradient"/>
    <linearGradient id="linear-gradient-63" x1="-198.5" y1="5.486" x2="-197.517" y2="5.486" xlink:href="#linear-gradient"/>
    <linearGradient id="linear-gradient-64" x1="-166.107" y1="5.945" x2="-165.099" y2="5.945" xlink:href="#linear-gradient"/>
    <linearGradient id="linear-gradient-65" x1="-0.062" y1="0.552" x2="1.015" y2="0.552" xlink:href="#linear-gradient-2"/>
    <linearGradient id="linear-gradient-66" x1="-0.148" y1="0.933" x2="1.06" y2="0.322" gradientUnits="objectBoundingBox">
      <stop offset="0" stop-color="#bbaec4"/>
      <stop offset="1" stop-color="#ded1e8"/>
    </linearGradient>
    <linearGradient id="linear-gradient-67" x1="-30.367" y1="20.453" x2="-29.719" y2="20.453" xlink:href="#linear-gradient-2"/>
    <linearGradient id="linear-gradient-68" x1="0.082" y1="0.482" x2="0.96" y2="0.307" xlink:href="#linear-gradient-66"/>
    <linearGradient id="linear-gradient-69" x1="0.921" y1="0.314" x2="0.142" y2="0.721" gradientUnits="objectBoundingBox">
      <stop offset="0" stop-color="#04074a"/>
      <stop offset="0.89" stop-opacity="0"/>
    </linearGradient>
    <linearGradient id="linear-gradient-70" x1="0.851" y1="0.293" x2="0.077" y2="0.843" gradientUnits="objectBoundingBox">
      <stop offset="0" stop-color="#04074a"/>
      <stop offset="1" stop-color="#04074a"/>
    </linearGradient>
  </defs>
  <g id="décors" transform="translate(-539.559 -140)">
    <g id="Ellipse_84" data-name="Ellipse 84" transform="translate(906 195)" fill="#0c2557" stroke="#707070" stroke-width="1">
      <ellipse cx="61" cy="104.5" rx="61" ry="104.5" stroke="none"/>
      <ellipse cx="61" cy="104.5" rx="60.5" ry="104" fill="none"/>
    </g>
    <g id="Groupe_3090" data-name="Groupe 3090" transform="translate(746.574 168.414)">
      <g id="Groupe_3075" data-name="Groupe 3075" transform="translate(0 0)">
        <g id="Groupe_3071" data-name="Groupe 3071" transform="translate(0 0.044)">
          <g id="Groupe_3070" data-name="Groupe 3070" transform="translate(0 0)">
            <path id="Tracé_3183" data-name="Tracé 3183" d="M245.093,326.517V291.945h-78.1V267.757L242.544,155.43h31.095V267.757h19.434v24.188H273.639v34.572Zm.973-58.76,1.7-83.537-53.445,83.537Z" transform="translate(-166.992 -155.43)" fill="#133b89"/>
          </g>
        </g>
        <g id="Groupe_3073" data-name="Groupe 3073" transform="translate(305.322 94.21)" opacity="0.94">
          <g id="Groupe_3072" data-name="Groupe 3072" transform="translate(0 0)">
            <path id="Tracé_3184" data-name="Tracé 3184" d="M534.368,326.517V291.945h-78.1V267.757L531.818,155.43h31.095V267.757h19.434v24.188H562.913v34.572Zm.972-58.76,1.7-83.537L483.6,267.757Z" transform="translate(-456.266 -155.43)" fill="#133b89"/>
          </g>
        </g>
        <g id="Groupe_3074" data-name="Groupe 3074" transform="translate(125.711 0)" opacity="0.94">
          <path id="Tracé_3185" data-name="Tracé 3185" d="M500.172,286.437q0,60.891-25.236,95.348t-69.418,34.459q-44.722,0-69.6-34.809t-24.875-97.79q0-62.458,25.146-97.354T406.057,151.4q45.263,0,69.688,34.981T500.172,286.437ZM404.8,380.475q26.219,0,39.423-24.339t13.2-72.839q0-47.108-13.022-71.8t-37.988-24.687q-26.043,0-39.334,24.6t-13.29,72.579q0,46.585,13.2,71.533T404.8,380.475Z" transform="translate(-311.045 -151.398)" fill="#133b89"/>
        </g>
      </g>
      <g id="Groupe_3089" data-name="Groupe 3089" transform="translate(121.219 45.6)">
        <g id="Groupe_3088" data-name="Groupe 3088" transform="translate(0 0)">
          <path id="Tracé_3186" data-name="Tracé 3186" d="M349.779,239.16s-3.941-11.993-2.662-13.706,18.687-9.283,40.907-14,23.272-2.932,24.987-1.653,3.8,14.854,3.761,17.647S349.779,239.16,349.779,239.16Z" transform="translate(-288.665 -171.342)" fill="url(#linear-gradient)"/>
          <path id="Tracé_3187" data-name="Tracé 3187" d="M464.381,327.649l-1.543,3.4L452.063,354.8l-10.32,22.753c-5.128-3.6-6.722-16.747-6.475-26.763a80.327,80.327,0,0,0-1.137-16.663,21.908,21.908,0,0,1-7.562-6.68,39.137,39.137,0,0,1-3.043-4.731v0c-.656-1.2-1-1.978-1-1.978-12.05.59-20.255-7.221-22.2-8.483s-5.587-.084-9.216,8.068c-3.266,7.339-11.541,10.309-13.161,10.831-.179.057-.278.084-.278.084-.352,1.968-.721,3.744-1.1,5.351-3.077,12.992-6.827,14.721-6.827,14.721-.41,4.213,2.1,10.319,2.867,18.172s-.031,20-.031,20l-10.841-6.731-21.207-13.171s-8.037-18.983-7.539-25.295a18.106,18.106,0,0,1,1.074-4.791,22.428,22.428,0,0,1,2.051-4.163l.006-.007a17.659,17.659,0,0,1,1.467-2.048s-.029-1.011.019-2.592c.022-.706.06-1.527.122-2.424a47.806,47.806,0,0,1,.921-6.683,15.145,15.145,0,0,1,.484-1.709,18.233,18.233,0,0,1,1.23-2.795,21.66,21.66,0,0,1,1.437-2.289v0l0,0,.053-.075.035-.05.016-.019.016-.022.051-.074c.04-.054.078-.107.119-.159s.077-.106.118-.154c.14-.184.277-.36.412-.527a18.5,18.5,0,0,1,1.637-1.8h0v0s.478-1.658,1.125-4.039c.5-1.84,1.1-4.111,1.652-6.381,1.272-5.2,1.147-7.053,4.46-9.6,3.258-2.508,4.07-4.623,5.987-6.149l.009-.006.09-.074c1.116-.859,3.154-2.145,4.726-3.11l.019-.009c1.222-.753,2.161-1.3,2.161-1.3a21.028,21.028,0,0,1,1.162-6.822,9.037,9.037,0,0,1-.928-2.2c-.312-.993-.512-1.887-.512-1.887-.538.366-1.065.693-1.577.984l-.012.007c-5.618,3.189-9.594,2.1-9.594,2.1a21.721,21.721,0,0,1-4.441,1.346,20.314,20.314,0,0,1-5.682.272c-9.367-.85-15.872-7.751-15.872-7.751l4.891-6.93,10.8-15.3a12.758,12.758,0,0,1,4.306,1.546l.009,0a8.071,8.071,0,0,1,.884.622l.007.007c.143.116.269.229.384.338a4.407,4.407,0,0,1,.909,1.15v0c.022.043.032.068.032.068a.045.045,0,0,1,0-.019v0a9.412,9.412,0,0,1,.141-1,6.519,6.519,0,0,1,.63-1.845c.056-.1.113-.2.172-.3a4.092,4.092,0,0,1,1-1.116,2.925,2.925,0,0,1,1.214-.587q.048-.47.112-.916c1.54-11.275,8.8-11.55,8.8-11.55,1.514-8.473,10.108-8.595,10.108-8.595s1.82.428,4.687.83l.021,0a59.027,59.027,0,0,0,18.594-.1,25.739,25.739,0,0,0,14.279-7.936,15.955,15.955,0,0,0,1.553-1.98c7.1-1.646,12.587,7.28,12.587,7.28,4.067.013,7.321,2.714,9.189,4.739a17.619,17.619,0,0,1,1.746,2.187c.044-.059.093-.118.14-.175a11.09,11.09,0,0,1,1.521-1.559l.006-.007.018-.013c.018-.016.029-.025.029-.025h0c.094-.079.188-.157.284-.231h0a14.14,14.14,0,0,1,2.63-1.64,15.871,15.871,0,0,1,4.1-1.361l9.57,19.8,2.071,4.282a14.83,14.83,0,0,1-7.836,9.586,17.605,17.605,0,0,1-1.917.844,11.625,11.625,0,0,1-1.486.446c-5.376,1.243-11.285-1.153-14.645-2.9v0s-.046-.019-.129-.065c-.026-.015-.053-.029-.079-.041-.06-.034-.132-.072-.215-.121-1.449-.775-2.321-1.374-2.321-1.374a17.457,17.457,0,0,1,.8,2.876v0c.035.191.069.384.1.575a34,34,0,0,1,.168,8.8,28.424,28.424,0,0,1,1.653,6.721c.265,2.8-.374,3.972-.594,4.282-.034.049-.057.075-.066.088a4.72,4.72,0,0,1,.538-.287l.021-.01a10.128,10.128,0,0,1,1.886-.641c.124-.031.252-.057.383-.085l.051-.01a13.973,13.973,0,0,1,1.561-.221h0a20.056,20.056,0,0,1,8.286,1.218l.007,0c.085.031.174.06.262.093.165.059.331.119.5.185,8.832,3.349,12.587,17.509,12.587,17.509a15.43,15.43,0,0,1,3.919,4.132,26.3,26.3,0,0,1,4.639,12.258C463.333,319.118,464.381,327.649,464.381,327.649Z" transform="translate(-298.003 -168.944)" fill="url(#linear-gradient-2)"/>
          <path id="Tracé_3188" data-name="Tracé 3188" d="M342.906,260.008c-9.367-.85-15.872-7.751-15.872-7.751l4.891-6.93c1.67,2.136,5.287,5.984,10.478,7.275a15.258,15.258,0,0,0,4.878.431A23.93,23.93,0,0,1,342.906,260.008Z" transform="translate(-298.003 -153.939)" fill="url(#linear-gradient-3)"/>
          <path id="Tracé_3189" data-name="Tracé 3189" d="M418.2,260.847l-7.377,11.163s-6.493,10.476-18.653,9.445-23.148-12.138-31.876-7.125-13.77,16.284-13.77,16.284l5.013-1.5s-8.813,5.821-10.391,9.507a1.685,1.685,0,0,0,.256,2.112l-5.315,1.555A21.673,21.673,0,0,1,337.528,300h0l0,0,.053-.075.035-.05.016-.019.016-.022.051-.073c.04-.054.078-.107.119-.159s.077-.106.118-.154c.14-.184.276-.36.412-.527a18.5,18.5,0,0,1,1.637-1.8h0v0s.478-1.658,1.125-4.039c.5-1.84,1.1-4.111,1.652-6.381,1.272-5.2,1.147-7.053,4.46-9.6,3.258-2.508,4.07-4.623,5.987-6.149l.009-.006.09-.074c1.117-.859,3.154-2.145,4.726-3.11l.019-.009c1.222-.753,2.161-1.3,2.161-1.3a21.029,21.029,0,0,1,1.162-6.822,9.039,9.039,0,0,1-.928-2.2c-.312-.993-.512-1.887-.512-1.887-.538.366-1.065.693-1.577.984l-.012.007c-5.618,3.189-9.594,2.1-9.594,2.1a21.719,21.719,0,0,1-4.441,1.346,25.891,25.891,0,0,0,2.708-7.62,11.149,11.149,0,0,0,3.046-1.721s1.531,1.987,5.234,1.734,10.92-3.535,10.884-7.484a26.022,26.022,0,0,0,17.725,17.857C398.647,267.3,412.081,263.126,418.2,260.847Z" transform="translate(-293.737 -154.157)" fill="url(#linear-gradient-4)"/>
          <path id="Tracé_3190" data-name="Tracé 3190" d="M358.981,313.986c-.41,4.213,2.1,10.319,2.867,18.172s-.031,20-.031,20l-10.841-6.731c2.521-6.891-.752-17.3-1.089-25.006-.416-9.505,5.37-9.9,5.37-9.9a16.03,16.03,0,0,1,4.948-17.8,33.541,33.541,0,0,1,5.6,6.549C362.731,312.256,358.981,313.986,358.981,313.986Z" transform="translate(-287.25 -131.621)" fill="url(#linear-gradient-5)"/>
          <path id="Tracé_3191" data-name="Tracé 3191" d="M412.858,283.212a38.259,38.259,0,0,0-4.554,10.65c-.656-1.2-1-1.978-1-1.978-12.05.59-20.255-7.221-22.2-8.483s-5.587-.084-9.216,8.068c-3.266,7.339-11.541,10.309-13.161,10.831-.688-.887-1.846-2.328-3.37-4.011,2.845-2.815,5.22-6.833,9.13-13.056,5.034-8.017,11.431-9.636,14.643-10.3,5.044-1.041,7.347,2.056,18.852,7.084A17.923,17.923,0,0,0,412.858,283.212Z" transform="translate(-282.782 -140.091)" fill="url(#linear-gradient-6)"/>
          <path id="Tracé_3192" data-name="Tracé 3192" d="M420.195,323.417l-10.32,22.753c-5.128-3.6-6.722-16.747-6.475-26.763a80.328,80.328,0,0,0-1.137-16.663,21.908,21.908,0,0,1-7.562-6.68,90.317,90.317,0,0,1,9.841-15.957c-1.65,6.713,1.6,11.912,5.444,16.531,0,0-1.158,10.309.846,19.24C412.134,321.684,416.97,323.121,420.195,323.417Z" transform="translate(-266.135 -137.559)" fill="url(#linear-gradient-7)"/>
          <path id="Tracé_3193" data-name="Tracé 3193" d="M427.928,307.4l-1.543,3.4c-2.918-3.249-5.443-10.122-6.768-19.574-1.811-12.9-9.763-14.685-9.763-14.685,3.155-10.332-4.041-18.609-5.419-20.073.165.059.331.119.5.185,8.832,3.349,12.587,17.509,12.587,17.509a15.429,15.429,0,0,1,3.919,4.132,26.3,26.3,0,0,1,4.639,12.258C426.88,298.866,427.928,307.4,427.928,307.4Z" transform="translate(-261.55 -148.693)" fill="url(#linear-gradient-8)"/>
          <path id="Tracé_3194" data-name="Tracé 3194" d="M359.658,227.134c.778,4.6,8.462,4.77,8.462,4.77-4.781,1.489-8.762,1.064-13.7.237s-8.289,8.006-6.95,8.577,2.617,2.88,2.617,2.88c-3.845-1.831-4.413.068-3.2,4.17s.71,10.414.71,10.414c-.753-4.269-3.555-10.033-5.351-13.431a6.518,6.518,0,0,1,.63-1.845c.056-.1.113-.2.172-.3a4.092,4.092,0,0,1,1-1.116,2.925,2.925,0,0,1,1.214-.587q.049-.47.112-.916c1.54-11.275,8.8-11.55,8.8-11.55,1.514-8.473,10.108-8.595,10.108-8.595s1.82.428,4.687.83C365.439,220.219,358.879,222.546,359.658,227.134Z" transform="translate(-290.841 -165.941)" fill="url(#linear-gradient-9)"/>
          <path id="Tracé_3195" data-name="Tracé 3195" d="M407.983,227.7l-.178.875a15.591,15.591,0,0,0-12.312-4.509c-.888,4.013-7.817,4.719-7.817,4.719s5.381-2.924,4.682-6.365-9.516-6.559-9.516-6.559c-.028-.071-.051-.143-.075-.213a15.956,15.956,0,0,0,1.553-1.98c7.1-1.646,12.587,7.28,12.587,7.28,4.067.013,7.321,2.714,9.189,4.739a17.619,17.619,0,0,1,1.746,2.187C407.888,227.817,407.936,227.758,407.983,227.7Z" transform="translate(-271.754 -168.944)" fill="url(#linear-gradient-10)"/>
          <path id="Tracé_3196" data-name="Tracé 3196" d="M341.067,287.226c-.165.394-5.429,13.072-9.255,17.524l0,0a22.428,22.428,0,0,1,2.051-4.163l.006-.007a17.67,17.67,0,0,1,1.467-2.048s-.029-1.011.019-2.592c.022-.706.06-1.527.122-2.424A17.991,17.991,0,0,0,341.067,287.226Z" transform="translate(-295.754 -134.206)" fill="#cec4d6"/>
          <path id="Tracé_3197" data-name="Tracé 3197" d="M410.612,244.677a39.077,39.077,0,0,0,3.929,6.58c-5.376,1.243-11.285-1.153-14.645-2.9v0s-.046-.019-.129-.065c-.026-.015-.053-.029-.079-.041-.06-.034-.132-.072-.215-.121-1.449-.775-2.321-1.374-2.321-1.374a17.46,17.46,0,0,1,.8,2.876h0c.035.191.069.384.1.575-6.908-9.6-9.978-22.189-10.12-22.8.213.608,4.633,13.015,15.3,16.372A18.813,18.813,0,0,0,410.612,244.677Z" transform="translate(-269.323 -162.378)" fill="#e5dfe9"/>
          <path id="Tracé_3198" data-name="Tracé 3198" d="M417.354,237.6a14.831,14.831,0,0,1-7.836,9.586,36.882,36.882,0,0,1-3.7-6.053,18.76,18.76,0,0,0,9.463-7.815Z" transform="translate(-260.898 -159.596)" fill="#e5dfe9"/>
          <g id="Groupe_3077" data-name="Groupe 3077" transform="translate(73.732 103.344)">
            <path id="Tracé_3199" data-name="Tracé 3199" d="M416.023,256.887v.01s-9.879,5.543-11.466,7.318-2.99,4.489-10.545,6.8a51.488,51.488,0,0,1-6.409,1.515c-6.6,1.122-14.829,1.172-21.569-2.63a19.171,19.171,0,0,0-8.613-7.142,69.2,69.2,0,0,0,8.918,1.383c.288.018.569.031.838.035.45.012.871.006,1.255-.021a4.386,4.386,0,0,1,1.542-1.268c.809-.331,2.871-.3,5.59-.328l1.075-.012c1.575-.024,3.324-.081,5.153-.234,1.614-.135,3.189-.321,4.616-.516.371-.049.733-.1,1.08-.15,2.545-.369,4.438-.721,4.9-.753a3.906,3.906,0,0,1,2.668,1.011c.131.115.2.188.2.188s.256-.09.711-.253c.85-.309,2.4-.877,4.278-1.617.26-.1.529-.209.8-.318.543-.216,1.106-.443,1.686-.683l.593-.246h0c1.43-.6,2.927-1.247,4.373-1.923.153-.071.309-.144.459-.218a41.471,41.471,0,0,0,6.071-3.388q.049.516.059.959a5.56,5.56,0,0,1-.653,3.323c-.034.049-.057.075-.066.088a4.716,4.716,0,0,1,.538-.287l.021-.01A10.128,10.128,0,0,1,416.023,256.887Z" transform="translate(-357.423 -253.455)" fill="url(#linear-gradient-11)"/>
            <path id="Tracé_3200" data-name="Tracé 3200" d="M414.3,254.414c-2.423,1.483-11.2,6.674-18.253,8.445l-.119,3.1c.009-.328-.082-3.869-7.325-2.709a112.265,112.265,0,0,1-15.027,1.258s2.042,8.993,14.031,8.027c-6.6,1.122-14.829,1.172-21.569-2.63a19.171,19.171,0,0,0-8.613-7.142,69.2,69.2,0,0,0,8.918,1.383c.288.018.569.031.838.035.45.012.871.006,1.255-.021a4.386,4.386,0,0,1,1.542-1.268c.809-.331,2.871-.3,5.59-.328l1.075-.012c1.575-.024,3.324-.081,5.153-.234,1.614-.135,3.189-.321,4.616-.516.371-.049.733-.1,1.08-.15,2.545-.369,4.438-.721,4.9-.753a3.906,3.906,0,0,1,2.668,1.011c.131.115.2.188.2.188s.256-.09.711-.253c.85-.309,2.4-.877,4.278-1.617.26-.1.529-.209.8-.318.543-.216,1.106-.443,1.686-.683l.593-.246h0c1.43-.6,2.927-1.247,4.373-1.923.153-.071.309-.144.459-.218a41.471,41.471,0,0,0,6.071-3.388Q414.287,253.971,414.3,254.414Z" transform="translate(-357.423 -253.455)" fill="url(#linear-gradient-12)"/>
            <g id="Groupe_3076" data-name="Groupe 3076" transform="translate(8.918 3.388)">
              <path id="Tracé_3201" data-name="Tracé 3201" d="M370.832,259.64l.015,9.65-1.09-9.638Z" transform="translate(-360.533 -253.93)" fill="#5c479e"/>
              <path id="Tracé_3202" data-name="Tracé 3202" d="M378.209,259.028l-.419,9.841-.66-9.691C377.5,259.129,377.862,259.079,378.209,259.028Z" transform="translate(-357.061 -254.218)" fill="#5c479e"/>
              <path id="Tracé_3203" data-name="Tracé 3203" d="M364.324,260.758l-.56,4.055-.278-4.091C363.774,260.741,364.055,260.754,364.324,260.758Z" transform="translate(-363.486 -253.42)" fill="#5c479e"/>
              <path id="Tracé_3204" data-name="Tracé 3204" d="M383.457,266.371c-.027-2.8-.294-5.693-.446-7.147.131.115.2.188.2.188s.256-.09.711-.253A28.95,28.95,0,0,1,383.457,266.371Z" transform="translate(-354.29 -254.156)" fill="#5c479e"/>
              <path id="Tracé_3205" data-name="Tracé 3205" d="M387.343,257.844l-.416,6.006-.387-5.688C386.8,258.06,387.07,257.953,387.343,257.844Z" transform="translate(-352.628 -254.776)" fill="#5c479e"/>
              <path id="Tracé_3206" data-name="Tracé 3206" d="M388.825,257.213l-.306,4.447-.287-4.2Z" transform="translate(-351.832 -255.073)" fill="#5c479e"/>
              <path id="Tracé_3207" data-name="Tracé 3207" d="M392.068,255.758l-.238,3.463-.221-3.245C391.762,255.905,391.918,255.832,392.068,255.758Z" transform="translate(-350.241 -255.758)" fill="#5c479e"/>
            </g>
          </g>
          <g id="Groupe_3078" data-name="Groupe 3078" transform="translate(38.111 56.744)">
            <path id="Tracé_3208" data-name="Tracé 3208" d="M377.807,270.436c-5.013,1.5-10.925-10.183-20.63-9.289a32.241,32.241,0,0,0-9.436,2.8l.09-.074c1.116-.859,3.154-2.145,4.726-3.11l.019-.009c.252-.116,3-1.325,8.458-1.037C368.031,260.09,372.884,269.841,377.807,270.436Z" transform="translate(-326.362 -203.925)" fill="#aca5b5"/>
            <path id="Tracé_3209" data-name="Tracé 3209" d="M412.759,256.809c-13.649-1.715-26.572,11.91-26.572,11.91,5.626-7.271,10.581-10.514,13.909-11.962.163-.072.319-.137.472-.2l.021-.01a15.671,15.671,0,0,1,2.268-.727l.051-.01a7.347,7.347,0,0,1,1.561-.221h0A20.056,20.056,0,0,1,412.759,256.809Z" transform="translate(-308.255 -205.875)" fill="#aca5b5"/>
            <path id="Tracé_3210" data-name="Tracé 3210" d="M337.068,282.344l0,0,0,0Z" transform="translate(-331.389 -193.251)" fill="#aca5b5"/>
            <path id="Tracé_3211" data-name="Tracé 3211" d="M351.055,274.946a36.215,36.215,0,0,0-13.948,10.8,20.154,20.154,0,0,1,2.409-2.811s.478-1.658,1.125-4.039A54.043,54.043,0,0,1,351.055,274.946Z" transform="translate(-331.37 -196.733)" fill="#aca5b5"/>
            <path id="Tracé_3212" data-name="Tracé 3212" d="M337.549,291.147a26.559,26.559,0,0,1-4.342,7.59,17.661,17.661,0,0,1,1.467-2.048s-.029-1.011.019-2.592A9.687,9.687,0,0,0,337.549,291.147Z" transform="translate(-333.207 -189.103)" fill="#aca5b5"/>
            <path id="Tracé_3213" data-name="Tracé 3213" d="M402.469,222.228c-.528.482-4.9,4.9-3.564,18.14,0,0-2.8-9.917.157-18.593a17.619,17.619,0,0,1,1.746,2.187A11.1,11.1,0,0,1,402.469,222.228Z" transform="translate(-302.83 -221.775)" fill="#c0b8cc"/>
            <path id="Tracé_3214" data-name="Tracé 3214" d="M400.966,222.069l-.018.013.009-.007Z" transform="translate(-301.303 -221.637)" fill="#aca5b5"/>
            <path id="Tracé_3215" data-name="Tracé 3215" d="M342.532,237.9a10.1,10.1,0,0,0-1.293-1.489A4.9,4.9,0,0,1,342.532,237.9Z" transform="translate(-329.424 -214.883)" fill="#aca5b5"/>
            <path id="Tracé_3216" data-name="Tracé 3216" d="M347.637,250.8c-2.118-6.821-4.076-10.482-5.493-12.431v0a7.361,7.361,0,0,1,.771-2.842C346.486,242.119,347.637,250.8,347.637,250.8Z" transform="translate(-328.998 -215.3)" fill="#aca5b5"/>
            <path id="Tracé_3217" data-name="Tracé 3217" d="M349.462,236.454a6.133,6.133,0,0,0-6-1.412,2.925,2.925,0,0,1,1.214-.587q.048-.47.112-.916A7.414,7.414,0,0,1,349.462,236.454Z" transform="translate(-328.377 -216.235)" fill="#aca5b5"/>
            <path id="Tracé_3218" data-name="Tracé 3218" d="M358.74,248.969a58.209,58.209,0,0,1-5.91,6.506c-.312-.993-.512-1.887-.512-1.887C351.779,253.954,358.74,248.969,358.74,248.969Z" transform="translate(-324.221 -208.968)" fill="#aca5b5"/>
            <path id="Tracé_3219" data-name="Tracé 3219" d="M395.285,242.083a17.459,17.459,0,0,1,.8,2.876,21.881,21.881,0,0,1-4.194-7.639,15.107,15.107,0,0,0,5.718,6.137C396.158,242.682,395.285,242.083,395.285,242.083Z" transform="translate(-305.57 -214.454)" fill="#aca5b5"/>
          </g>
          <path id="Tracé_3220" data-name="Tracé 3220" d="M366.714,252.576l2.2,3.279c-3.53,2.8-9.789,6.481-13.245,6.949s-5.585-.084-5.959-2.151c-.284-1.572,2.5-4.266,3.851-5.468.425-.377.71-.607.71-.607l.708,1.53s-4.079,4.207-1.339,4.707c.087.016.184.029.284.038,3.289.263,12.661-8.56,12.661-8.56" transform="translate(-287.332 -150.658)" fill="#34254c"/>
          <path id="Tracé_3221" data-name="Tracé 3221" d="M353.148,260.084h0s-2.509.2-2.4-1.664c.057-1.022,1.253-2.676,2.326-3.967.425-.377.711-.608.711-.608l.708,1.53S350.408,259.584,353.148,260.084Z" transform="translate(-286.838 -149.926)" fill="#51347f"/>
          <path id="Tracé_3222" data-name="Tracé 3222" d="M405.7,252.259a10.208,10.208,0,0,1-3.545,2.9c-4.438,2.5-13.455.453-13.455.453l-1.025-4.813s5.791,3.093,11.576,2.7a11.1,11.1,0,0,0,3.089-.593c1.987-.74,2.354-1.965,1.8-2.764-.774-1.109-5.757-.235-5.757-.235l.119-4.03a22.221,22.221,0,0,1,4.356.71,4.965,4.965,0,0,1,2.776,1.593A3.387,3.387,0,0,1,405.7,252.259Z" transform="translate(-269.443 -153.681)" fill="#34254c"/>
          <path id="Tracé_3223" data-name="Tracé 3223" d="M401.006,252.031a4.915,4.915,0,0,1-3.36.646c3.785-1.134,1.5-4.932.515-6.319a4.965,4.965,0,0,1,2.776,1.593A3.387,3.387,0,0,1,401.006,252.031Z" transform="translate(-264.747 -153.453)" fill="#51347f"/>
          <g id="Groupe_3079" data-name="Groupe 3079" transform="translate(60.636 36.036)">
            <path id="Tracé_3224" data-name="Tracé 3224" d="M358.593,217.754s-6.859,3.071-6.049,18.362,13.445,23.265,13.445,23.265l.221,3.239s-9.741-3.055-15.238-15.469-1.2-27.819,7.421-30.965Z" transform="translate(-348.52 -203.699)" fill="url(#linear-gradient-13)"/>
            <path id="Tracé_3225" data-name="Tracé 3225" d="M383.6,211.293s8.811,3.351,12.656,15.411-3.024,20.436-9.867,25.785l2.214,5.2s12.056-7.333,13.271-20.2S394.137,212.667,385.2,207.7Z" transform="translate(-331.998 -207.697)" fill="url(#linear-gradient-14)"/>
            <path id="Tracé_3226" data-name="Tracé 3226" d="M402.809,264.467c-.047.694-6.115,1.75-8.468,2.183a261.623,261.623,0,0,1-29.121,3.636.776.776,0,0,1-.793-.54,135.7,135.7,0,0,1-5.163-23.724q-.457-3.586-.746-7.219a1.6,1.6,0,0,1,1.158-1.661,140.388,140.388,0,0,1,38.216-5.684,1.6,1.6,0,0,1,1.561,1.253C401.535,241.975,403.156,259.329,402.809,264.467Z" transform="translate(-343.814 -196.506)" fill="url(#linear-gradient-15)"/>
            <path id="Tracé_3227" data-name="Tracé 3227" d="M402.555,263.062c-.047.694-6.115,1.749-8.468,2.181a261.6,261.6,0,0,1-29.119,3.638.776.776,0,0,1-.794-.54,135.7,135.7,0,0,1-5.163-23.724q-.457-3.586-.744-7.22a1.6,1.6,0,0,1,1.156-1.661,140.388,140.388,0,0,1,38.216-5.684,1.6,1.6,0,0,1,1.561,1.253C401.281,240.57,402.9,257.923,402.555,263.062Z" transform="translate(-343.933 -197.168)" fill="url(#linear-gradient-16)"/>
            <path id="Tracé_3228" data-name="Tracé 3228" d="M393.847,260.581a261.4,261.4,0,0,1-28.721,3.61,1.28,1.28,0,0,1-1.312-.893,135.86,135.86,0,0,1-5.044-23.343C363.811,248.682,374.92,262.572,393.847,260.581Z" transform="translate(-343.693 -192.505)" fill="url(#linear-gradient-17)"/>
            <path id="Tracé_3229" data-name="Tracé 3229" d="M361.958,238.644s2.089,13.576,4.245,21.333l2.762-.421s-2.32-13.559-2.889-21.891Z" transform="translate(-342.191 -193.583)" fill="url(#linear-gradient-18)"/>
            <path id="Tracé_3230" data-name="Tracé 3230" d="M369.593,236.943s1.936,14.748,3.813,21.828l3.224-.452s-2.334-13.792-2.9-22.123Z" transform="translate(-338.596 -194.275)" fill="url(#linear-gradient-19)"/>
            <path id="Tracé_3231" data-name="Tracé 3231" d="M366.249,238.806s.58,5.075,1.278,8.515l2.762-.421-1.278-8.515A17.4,17.4,0,0,0,366.249,238.806Z" transform="translate(-340.171 -193.244)" fill="url(#linear-gradient-20)"/>
            <path id="Tracé_3232" data-name="Tracé 3232" d="M383.725,238.707a2.436,2.436,0,1,1-2.6-2.264A2.436,2.436,0,0,1,383.725,238.707Z" transform="translate(-334.232 -194.161)" fill="url(#linear-gradient-21)"/>
            <path id="Tracé_3233" data-name="Tracé 3233" d="M384.837,245.744a2.436,2.436,0,1,1-2.595-2.264A2.436,2.436,0,0,1,384.837,245.744Z" transform="translate(-333.708 -190.847)" fill="url(#linear-gradient-22)"/>
          </g>
          <path id="Tracé_3234" data-name="Tracé 3234" d="M389.816,226.045a4.988,4.988,0,1,1-5.316-4.636A4.987,4.987,0,0,1,389.816,226.045Z" transform="translate(-273.128 -165.209)" fill="url(#linear-gradient-23)"/>
          <path id="Tracé_3235" data-name="Tracé 3235" d="M358.523,236.071c2.277-.528,7.814-1.645,13.858-2.96a1.486,1.486,0,0,0,1.172-1.967l-1.152-3.8a1.18,1.18,0,0,0-1.344-.924c-2.729.45-9.807.916-14.173,2.376-.552.185-1.141.31-.816,2.1a32.616,32.616,0,0,0,1.071,4.406A1.179,1.179,0,0,0,358.523,236.071Z" transform="translate(-284.373 -162.852)" fill="url(#linear-gradient-24)"/>
          <g id="Groupe_3080" data-name="Groupe 3080" transform="translate(56.081)">
            <path id="Tracé_3236" data-name="Tracé 3236" d="M355.368,221.277a23.354,23.354,0,0,0,2.373,5.465s23.763,10.935,42.278-10.788c0,0-1.274-5.029-2.82-7.249C397.2,208.705,386.082,227.041,355.368,221.277Z" transform="translate(-340.739 -171.187)" fill="url(#linear-gradient-25)"/>
            <path id="Tracé_3237" data-name="Tracé 3237" d="M351.026,202.369s-4.7,2.657-5.366,3.157c-1.456,1.09,4.2,16.937,6.275,17.01,1.249.044,5.475-1.477,5.475-1.477Z" transform="translate(-345.423 -174.171)" fill="url(#linear-gradient-26)"/>
            <path id="Tracé_3238" data-name="Tracé 3238" d="M348.782,205.879a.928.928,0,1,1-.99-.862A.927.927,0,0,1,348.782,205.879Z" transform="translate(-344.715 -172.925)" fill="#c8b8d3"/>
            <path id="Tracé_3239" data-name="Tracé 3239" d="M381.685,192.242s5.351-.678,6.188-.677c1.818,0,6.761,16.086,5.137,17.387-.974.783-5.27,2.089-5.27,2.089Z" transform="translate(-328.345 -179.259)" fill="url(#linear-gradient-27)"/>
            <path id="Tracé_3240" data-name="Tracé 3240" d="M384.5,194.45a.928.928,0,1,0,.278-1.283A.929.929,0,0,0,384.5,194.45Z" transform="translate(-327.088 -178.574)" fill="#c8b8d3"/>
            <path id="Tracé_3241" data-name="Tracé 3241" d="M357.7,189.256l-.571-1.9c3.5-2.727,7.945-4.048,13.2-4.155l1.1,2.483Z" transform="translate(-339.911 -183.199)" fill="url(#linear-gradient-28)"/>
            <path id="Tracé_3242" data-name="Tracé 3242" d="M403.812,217.4l-11.628,3.749-35.01,11.288c-13.555-14.652-10.317-38.576,7.568-45.854.828-.338,1.653-.634,2.479-.893l.01,0C386.918,179.491,405.406,194.976,403.812,217.4Z" transform="translate(-343.823 -182.676)" fill="url(#linear-gradient-29)"/>
            <path id="Tracé_3243" data-name="Tracé 3243" d="M392.184,220.705l-35.01,11.288c-13.555-14.652-10.317-38.576,7.568-45.854.828-.338,1.653-.634,2.479-.893-11.98,4.975-13.043,13.006-2.342,9.719s18.39-1.212,18.39-1.212Z" transform="translate(-343.823 -182.235)" fill="url(#linear-gradient-30)"/>
            <path id="Tracé_3244" data-name="Tracé 3244" d="M401.137,206.8a28.676,28.676,0,0,1-21.049,18.642c-16.937,3.945-25.589-3.6-25.589-3.6Z" transform="translate(-341.149 -172.082)" fill="url(#linear-gradient-31)"/>
            <path id="Tracé_3245" data-name="Tracé 3245" d="M402.333,214.4a35.4,35.4,0,0,1-10.107,10.289c-7.506,5.141-19.426,9.382-36.531,4.748-7.44-13.98-3.135-28.123,7.377-34.853a24.288,24.288,0,0,1,2.474-1.391C378.527,186.857,398.01,191.911,402.333,214.4Z" transform="translate(-342.344 -179.681)" fill="url(#linear-gradient-32)"/>
            <path id="Tracé_3246" data-name="Tracé 3246" d="M392.226,223.437c-7.506,5.141-19.426,9.382-36.531,4.748-7.44-13.98-3.135-28.123,7.377-34.853-1.343,3.3-3.108,9.926-1.645,20.048,2.2,15.2,12.716,19.737,30.786,10.063Z" transform="translate(-342.344 -178.427)" fill="url(#linear-gradient-33)"/>
            <path id="Tracé_3247" data-name="Tracé 3247" d="M366.095,192.426s14.492-2.476,22.582,10.856a2.37,2.37,0,0,1-.647,3.168h0a2.365,2.365,0,0,1-3.424-.762A27.389,27.389,0,0,0,366.095,192.426Z" transform="translate(-335.687 -178.939)" fill="url(#linear-gradient-34)"/>
            <path id="Tracé_3248" data-name="Tracé 3248" d="M384.188,204.262a1.856,1.856,0,1,1-2.534-.684A1.857,1.857,0,0,1,384.188,204.262Z" transform="translate(-328.798 -173.718)" fill="url(#linear-gradient-35)"/>
          </g>
          <g id="Groupe_3081" data-name="Groupe 3081" transform="translate(41.124 55.279)">
            <path id="Tracé_3249" data-name="Tracé 3249" d="M408.537,277.626c-.8,1.527-1.942,2.226-3.021,3.648h0a90.319,90.319,0,0,0-9.841,15.957,39.141,39.141,0,0,1-3.043-4.731v0a38.26,38.26,0,0,1,4.554-10.65A41.9,41.9,0,0,0,408.537,277.626Z" transform="translate(-308.233 -194.006)" fill="#2d2244"/>
            <path id="Tracé_3250" data-name="Tracé 3250" d="M425.542,272.627a34.165,34.165,0,0,0-21.485,12.947c.865-1.175,1.792-1.627,2.589-3.154a44.112,44.112,0,0,1-10.919,3.729,43.63,43.63,0,0,1,4.373-5.956c7.98-9.146,21.523-11.7,21.523-11.7A15.429,15.429,0,0,1,425.542,272.627Z" transform="translate(-306.775 -198.307)" fill="url(#linear-gradient-36)"/>
            <path id="Tracé_3251" data-name="Tracé 3251" d="M363.88,294.757c-.18.057-.278.084-.278.084-.352,1.968-.721,3.744-1.1,5.351a33.542,33.542,0,0,0-5.6-6.549c.331-.269.665-.515.994-.737a17.953,17.953,0,0,0,2.62-2.161C362.034,292.429,363.192,293.87,363.88,294.757Z" transform="translate(-325.063 -187.827)" fill="#2d2244"/>
            <path id="Tracé_3252" data-name="Tracé 3252" d="M370.7,295.17a17.95,17.95,0,0,1-2.62,2.161c-.329.222-.663.468-.994.737a48.575,48.575,0,0,0-9.168-6.555,31.482,31.482,0,0,0-22.665-3.619,18.236,18.236,0,0,1,1.23-2.795,21.672,21.672,0,0,1,1.437-2.289h0l0,0,.053-.075.035-.05.016-.019.016-.022.051-.074c.04-.054.078-.107.119-.159s.077-.106.118-.154c.14-.184.276-.36.412-.527.809-.118,1.75-.225,2.8-.294a30.96,30.96,0,0,1,14.93,2.506C362.207,286.588,367.34,291.462,370.7,295.17Z" transform="translate(-335.255 -192.251)" fill="url(#linear-gradient-37)"/>
            <path id="Tracé_3253" data-name="Tracé 3253" d="M410.681,244.682a17.6,17.6,0,0,1-1.917.844,11.628,11.628,0,0,1-1.486.446,39.078,39.078,0,0,1-3.929-6.58,15.45,15.45,0,0,0,3.633-.763A36.882,36.882,0,0,0,410.681,244.682Z" transform="translate(-303.185 -212.372)" fill="#2d2244"/>
            <path id="Tracé_3254" data-name="Tracé 3254" d="M408.216,247.036a15.45,15.45,0,0,1-3.633.763,43.208,43.208,0,0,1-3.2-25.38h0a14.139,14.139,0,0,1,2.63-1.64,46.126,46.126,0,0,0,2.451,22.235C407.032,244.5,407.625,245.837,408.216,247.036Z" transform="translate(-304.418 -220.779)" fill="url(#linear-gradient-38)"/>
            <path id="Tracé_3255" data-name="Tracé 3255" d="M346.214,249.943a25.891,25.891,0,0,1-2.708,7.62,20.314,20.314,0,0,1-5.682.272,23.931,23.931,0,0,0,4.375-6.974A13.863,13.863,0,0,0,346.214,249.943Z" transform="translate(-334.045 -207.044)" fill="#2d2244"/>
            <path id="Tracé_3256" data-name="Tracé 3256" d="M344.814,256.83a13.863,13.863,0,0,1-4.016.918c3.405-8.292,1.861-17.075,1.033-20.488a4.406,4.406,0,0,1,.909,1.15v0c.022.043.032.068.032.068a.045.045,0,0,1,0-.019v0a7.36,7.36,0,0,1,.771-2.842c.056-.1.113-.2.172-.3C346.007,244.756,345.817,251.807,344.814,256.83Z" transform="translate(-332.644 -213.931)" fill="url(#linear-gradient-39)"/>
          </g>
          <path id="Tracé_3257" data-name="Tracé 3257" d="M358.613,235.431c2.277-.528,8.067-1.846,13.858-2.96a1.179,1.179,0,0,0,.931-1.4l-.91-4.373a1.178,1.178,0,0,0-1.343-.924,111.176,111.176,0,0,0-14.207,3.155,1.176,1.176,0,0,0-.784,1.318,31.461,31.461,0,0,0,1.071,4.406A1.179,1.179,0,0,0,358.613,235.431Z" transform="translate(-284.295 -163.154)" fill="url(#linear-gradient-40)"/>
          <g id="Groupe_3082" data-name="Groupe 3082" transform="translate(6.548 49.496)">
            <path id="Tracé_3258" data-name="Tracé 3258" d="M342.5,264.176a18.39,18.39,0,0,1-6.613,1.277,17.671,17.671,0,0,1-7.83-1.687,2.185,2.185,0,0,1-.9.815l-.013.009c-.916.513-2.68,1-5.962.577-5.865-.763-7.937-3.877-7.864-6.207a1.914,1.914,0,0,1,1-1.544l.007,0c1.469-.946,4.158-1.13,5.316-1.209,1.62-.11,2.052-.6,1.278-1.714a.962.962,0,0,0-.137-.156c-.978-.956-4.22-1-6.055-1.98-1.93-1.031-3.029-3.514-2.971-6.075.029-1.262,1.166-1.978,2.686-2.211a9.6,9.6,0,0,1,5.119.749c3.12,1.415,4.245.872,4.366-.763.087-1.159-2.311-2.735-4.507-4.245A28.007,28.007,0,0,1,317,238.014c-2.224-1.94-.872-5.985,3.03-6.716a3.087,3.087,0,0,1,1.15,0h0c3.048.59,4.348,5.832,6.169,5.085,2.034-.835.519-2.593-2.231-5.428-.36-.374-.731-.778-1.093-1.206-2.4-2.84-4.482-6.709-1.792-8.711a2.766,2.766,0,0,1,2.23-.431c3.414.616,8.27,5.756,11.119,12.077a28.868,28.868,0,0,0,2.456,4.6c1.072,1.518,1.571,1.324,1.767,1.093a.579.579,0,0,0,.106-.178c.74-1.1,1.191-8.1,1.586-12.549.065-.719.147-1.418.253-2.083.552-3.441,1.7-6.029,3.808-6.563a4.549,4.549,0,0,1,1.04-.153c1.83-.031,2.8,1.442,3.241,4.976a13.836,13.836,0,0,1,.075,2.524c-.181,3.011-1.19,5.7-1.137,9.173.069,4.413,2.714,9.116,3.571,14.87S350.428,261.078,342.5,264.176Z" transform="translate(-311.75 -216.848)" fill="url(#linear-gradient-41)"/>
            <path id="Tracé_3259" data-name="Tracé 3259" d="M325.866,226.029c-.294,2.493-3.007,2.686-4.791,2.533-.263-.31-.521-.633-.768-.963-2.028-2.7-3.42-5.963-1.024-7.748a2.766,2.766,0,0,1,2.23-.431c.735.9,2.234,2.037,3.27,3.407A4.456,4.456,0,0,1,325.866,226.029Z" transform="translate(-308.796 -215.666)" fill="url(#linear-gradient-42)"/>
            <path id="Tracé_3260" data-name="Tracé 3260" d="M322.774,231.99c-.462,1.542-1.948,3.766-4.7,3.208-.756-.519-1.489-1.033-2.087-1.517-.115-.093-.224-.185-.328-.277-2.224-1.94-.872-5.985,3.03-6.716a3.087,3.087,0,0,1,1.15,0h0a18.56,18.56,0,0,1,2.262,2.9l0,0A3.349,3.349,0,0,1,322.774,231.99Z" transform="translate(-310.411 -212.239)" fill="url(#linear-gradient-43)"/>
            <path id="Tracé_3261" data-name="Tracé 3261" d="M322.072,245.694a4.1,4.1,0,0,1-1.294-.076c-.784-.191-1.5-.359-2.159-.534a17.265,17.265,0,0,1-3.9-1.446c-1.93-1.031-3.029-3.514-2.971-6.075.029-1.262,1.166-1.978,2.686-2.211a17.031,17.031,0,0,0,4.336,2.895c.424.154.871.335,1.312.538,1.795.815,3.554,1.964,3.816,3.064C324.228,243.222,324.139,245.321,322.072,245.694Z" transform="translate(-311.75 -208.133)" fill="url(#linear-gradient-44)"/>
            <path id="Tracé_3262" data-name="Tracé 3262" d="M326.652,251.659l-.013.009c-.836.468-2.377.918-5.132.668-.265-.024-.541-.053-.83-.091-5.865-.763-7.937-3.877-7.864-6.207a1.914,1.914,0,0,1,1-1.544l.007,0c.14-.056,2.487-.927,8.052,1.394l.49.209C327.7,248.378,328.993,249.975,326.652,251.659Z" transform="translate(-311.249 -203.926)" fill="url(#linear-gradient-45)"/>
            <path id="Tracé_3263" data-name="Tracé 3263" d="M328.8,247.021c-.15-.285-4.578-8.851,1.964-16.282,1.072,1.518,1.571,1.324,1.767,1.093l.138.284S326.531,240.9,328.8,247.021Z" transform="translate(-304.473 -210.305)" fill="url(#linear-gradient-46)"/>
            <path id="Tracé_3264" data-name="Tracé 3264" d="M334.772,264.176a18.39,18.39,0,0,1-6.613,1.277c14.252-3.251,12.453-16.6,10.75-20.741a25.752,25.752,0,0,1,.143-18.378c1.873-5.082.619-8.193-.178-9.486,1.83-.031,2.8,1.442,3.241,4.976a13.842,13.842,0,0,1,.075,2.524c-.181,3.011-1.19,5.7-1.137,9.173.069,4.413,2.714,9.116,3.571,14.87S342.7,261.078,334.772,264.176Z" transform="translate(-304.021 -216.848)" fill="url(#linear-gradient-47)"/>
            <path id="Tracé_3265" data-name="Tracé 3265" d="M340.311,224.348a8.234,8.234,0,0,1-8.164-.784c.552-3.441,1.7-6.029,3.808-6.563,2.514-.637,3.766.672,4.281,4.823A13.844,13.844,0,0,1,340.311,224.348Z" transform="translate(-302.143 -216.847)" fill="url(#linear-gradient-48)"/>
            <path id="Tracé_3266" data-name="Tracé 3266" d="M325.134,224.929c-.294,2.493-4.978,3.71-5.559,1.57.469-4.609,3.08-4.938,4.476-4.772A4.456,4.456,0,0,1,325.134,224.929Z" transform="translate(-308.064 -214.565)" fill="url(#linear-gradient-49)"/>
            <path id="Tracé_3267" data-name="Tracé 3267" d="M322.411,231.4c-.1,3.71-5.41,4.205-6.784,1.692a3.809,3.809,0,0,1,.593-3.826c2.308-2.889,5.4-.375,5.525-.268l0,0A4.453,4.453,0,0,1,322.411,231.4Z" transform="translate(-310.048 -211.65)" fill="url(#linear-gradient-50)"/>
            <path id="Tracé_3268" data-name="Tracé 3268" d="M319.967,244.6a4.1,4.1,0,0,1-1.294-.077c-.784-.191-1.5-.359-2.159-.534a6.259,6.259,0,0,1,1.468-6.3c1.795.815,3.554,1.964,3.816,3.064C322.123,242.122,322.033,244.221,319.967,244.6Z" transform="translate(-309.644 -207.034)" fill="url(#linear-gradient-51)"/>
            <path id="Tracé_3269" data-name="Tracé 3269" d="M324.114,251.08l-.013.009c-.836.468-2.377.918-5.132.668a4.9,4.9,0,0,1-.619-3.826,4.312,4.312,0,0,1,1.474-2.417C325.157,247.8,326.455,249.4,324.114,251.08Z" transform="translate(-308.711 -203.347)" fill="url(#linear-gradient-52)"/>
          </g>
          <g id="Groupe_3083" data-name="Groupe 3083" transform="translate(138.754 34.348)">
            <path id="Tracé_3270" data-name="Tracé 3270" d="M416.758,252.957a18.39,18.39,0,0,0,6.736.024,17.671,17.671,0,0,0,7.38-3.113,2.18,2.18,0,0,0,1.04.633l.015,0c1,.335,2.82.488,5.966-.541,5.621-1.84,7.077-5.285,6.572-7.561a1.913,1.913,0,0,0-1.269-1.331h-.007c-1.621-.658-4.3-.337-5.448-.2-1.612.193-2.129-.213-1.575-1.447a1.015,1.015,0,0,1,.106-.178c.784-1.121,3.961-1.768,5.581-3.071,1.7-1.371,2.324-4.016,1.79-6.521-.265-1.236-1.515-1.728-3.049-1.672a9.583,9.583,0,0,0-4.892,1.687c-2.8,1.97-4.008,1.646-4.43.062-.3-1.122,1.762-3.117,3.639-5.009a28.26,28.26,0,0,0,2.039-2.211c1.825-2.321-.255-6.044-4.226-6.037a3.079,3.079,0,0,0-1.131.21h0c-2.886,1.146-3.188,6.538-5.116,6.143-2.155-.443-.994-2.451,1.183-5.747.284-.434.574-.9.85-1.39,1.827-3.236,3.155-7.425.14-8.892a2.773,2.773,0,0,0-2.271-.009c-3.241,1.24-7.056,7.193-8.68,13.934a29.008,29.008,0,0,1-1.556,4.979c-.772,1.69-1.3,1.592-1.533,1.4a.587.587,0,0,1-.138-.157c-.93-.94-2.677-7.74-3.891-12.034-.2-.7-.409-1.367-.637-2-1.181-3.276-2.792-5.607-4.962-5.74a4.566,4.566,0,0,0-1.05.043c-1.8.309-2.486,1.937-2.259,5.493a13.731,13.731,0,0,0,.4,2.493c.738,2.926,2.228,5.376,2.823,8.8.753,4.35-.972,9.461-.744,15.274S408.394,251.386,416.758,252.957Z" transform="translate(-401.626 -206.55)" fill="url(#linear-gradient-53)"/>
            <path id="Tracé_3271" data-name="Tracé 3271" d="M416.429,214.092c.753,2.4,3.454,2.08,5.179,1.6.2-.353.393-.716.575-1.089,1.49-3.029,2.251-6.5-.435-7.8a2.773,2.773,0,0,0-2.271-.009c-.556,1.022-1.817,2.418-2.579,3.955A4.446,4.446,0,0,0,416.429,214.092Z" transform="translate(-394.729 -206.55)" fill="url(#linear-gradient-54)"/>
            <path id="Tracé_3272" data-name="Tracé 3272" d="M420.762,219.264c.741,1.428,2.614,3.338,5.212,2.28.646-.653,1.271-1.293,1.768-1.88.1-.112.185-.224.271-.331,1.825-2.321-.255-6.044-4.226-6.037a3.079,3.079,0,0,0-1.131.21h0a18.6,18.6,0,0,0-1.684,3.273l0,.006A3.35,3.35,0,0,0,420.762,219.264Z" transform="translate(-392.691 -203.373)" fill="url(#linear-gradient-55)"/>
            <path id="Tracé_3273" data-name="Tracé 3273" d="M425.132,232.7a4.147,4.147,0,0,0,1.256-.316c.735-.332,1.4-.63,2.023-.927a17.2,17.2,0,0,0,3.558-2.145c1.7-1.371,2.324-4.016,1.79-6.521-.265-1.236-1.515-1.728-3.049-1.672a17.086,17.086,0,0,1-3.723,3.649c-.388.231-.794.493-1.19.774-1.612,1.133-3.127,2.59-3.179,3.72C422.553,230.673,423.031,232.719,425.132,232.7Z" transform="translate(-391.743 -199.69)" fill="url(#linear-gradient-56)"/>
            <path id="Tracé_3274" data-name="Tracé 3274" d="M422.669,239.459l.015,0c.908.306,2.506.46,5.167-.3q.384-.108.8-.244c5.621-1.84,7.077-5.285,6.572-7.561a1.913,1.913,0,0,0-1.269-1.331h-.007c-.149-.029-2.617-.45-7.652,2.867-.151.1-.3.2-.443.3C421.033,236.428,420.056,238.238,422.669,239.459Z" transform="translate(-392.382 -195.508)" fill="url(#linear-gradient-57)"/>
            <path id="Tracé_3275" data-name="Tracé 3275" d="M416.965,235.2c.094-.307,2.852-9.547-4.956-15.632-.772,1.69-1.3,1.592-1.533,1.4l-.084.3S418.058,228.764,416.965,235.2Z" transform="translate(-397.498 -200.418)" fill="url(#linear-gradient-58)"/>
            <path id="Tracé_3276" data-name="Tracé 3276" d="M416.758,252.744a18.39,18.39,0,0,0,6.736.024c-14.608-.543-15.322-13.989-14.42-18.38a25.747,25.747,0,0,0-3.555-18.031c-2.787-4.645-2.133-7.936-1.59-9.354-1.8.309-2.486,1.937-2.259,5.493a13.731,13.731,0,0,0,.4,2.493c.738,2.926,2.228,5.376,2.823,8.8.753,4.35-.972,9.461-.744,15.274S408.394,251.173,416.758,252.744Z" transform="translate(-401.626 -206.337)" fill="url(#linear-gradient-59)"/>
            <path id="Tracé_3277" data-name="Tracé 3277" d="M402.064,215.006a8.229,8.229,0,0,0,7.876-2.289c-1.181-3.276-2.792-5.607-4.962-5.74-2.589-.159-3.574,1.361-3.31,5.535A13.731,13.731,0,0,0,402.064,215.006Z" transform="translate(-401.626 -206.354)" fill="url(#linear-gradient-60)"/>
            <path id="Tracé_3278" data-name="Tracé 3278" d="M416.429,212.813c.753,2.4,5.581,2.72,5.754.509-1.318-4.441-3.947-4.279-5.285-3.857A4.446,4.446,0,0,0,416.429,212.813Z" transform="translate(-394.729 -205.271)" fill="url(#linear-gradient-61)"/>
            <path id="Tracé_3279" data-name="Tracé 3279" d="M420.739,218.689c.79,3.626,6.1,3.127,6.98.4a3.807,3.807,0,0,0-1.293-3.649c-2.805-2.409-5.373.635-5.479.765l0,.006A4.45,4.45,0,0,0,420.739,218.689Z" transform="translate(-392.668 -202.799)" fill="url(#linear-gradient-62)"/>
            <path id="Tracé_3280" data-name="Tracé 3280" d="M425.132,231.284a4.148,4.148,0,0,0,1.256-.316c.735-.332,1.4-.63,2.023-.927a6.255,6.255,0,0,0-2.614-5.915c-1.612,1.133-3.127,2.59-3.179,3.72C422.553,229.255,423.031,231.3,425.132,231.284Z" transform="translate(-391.743 -198.272)" fill="url(#linear-gradient-63)"/>
            <path id="Tracé_3281" data-name="Tracé 3281" d="M422.669,238.436l.015,0c.908.306,2.506.46,5.167-.3a4.9,4.9,0,0,0-.1-3.875,4.3,4.3,0,0,0-1.9-2.1C421.033,235.406,420.056,237.215,422.669,238.436Z" transform="translate(-392.382 -194.485)" fill="url(#linear-gradient-64)"/>
          </g>
          <g id="Groupe_3085" data-name="Groupe 3085" transform="translate(140.124 146.714)">
            <path id="Tracé_3282" data-name="Tracé 3282" d="M404.188,345.639s-2.02-6.691-1.562-10.21,20.6-52.557,46.875-52.49Z" transform="translate(-402.558 -282.939)" fill="#aca5b5"/>
            <path id="Tracé_3283" data-name="Tracé 3283" d="M409.95,362.566s-5.875-4.688-6.416-20.129,30.9-69.2,50.035-57.952Z" transform="translate(-402.102 -282.934)" fill="url(#linear-gradient-65)"/>
            <path id="Tracé_3284" data-name="Tracé 3284" d="M457.5,303.645c0,.63-.022,1.271-.047,1.925a96.3,96.3,0,0,1-.966,10.378q-.132.916-.287,1.855c-.524,3.207-1.219,6.56-2.109,10.028-.154.594-.312,1.193-.477,1.795a123.811,123.811,0,0,1-3.92,11.9q-.333.863-.684,1.733c-1.384,3.435-2.965,6.921-4.76,10.429-.285.559-.575,1.115-.871,1.675q-2.4,4.514-5.282,9.054c-.157.25-.319.5-.481.752l0,0c-.4.238-.791.463-1.191.674-13.926,7.35-30.709-2.19-30.774-9.192,0-.069,0-.146.006-.229a15.586,15.586,0,0,1,.244-1.868c.4-2.224,1.252-5.716,2.451-9.922.165-.58.338-1.178.518-1.786.978-3.329,2.146-7.019,3.451-10.828.2-.581.4-1.166.609-1.755,1.374-3.914,2.885-7.909,4.478-11.729.24-.577.484-1.152.727-1.718,1.436-3.335,2.929-6.5,4.445-9.314.306-.566.615-1.119.921-1.659.371-.646.741-1.271,1.112-1.868A78.86,78.86,0,0,1,429.455,297c.416-.532.834-1.055,1.253-1.558a46.144,46.144,0,0,1,9.576-8.952q1.081-.724,2.136-1.29c3.816-2.065,7.315-2.61,10.1-1.492,1.362.547,2.586,2.526,3.477,5.65.188.652.36,1.355.515,2.1A57.136,57.136,0,0,1,457.5,303.645Z" transform="translate(-401.103 -282.847)" fill="url(#linear-gradient-66)"/>
            <g id="Groupe_3084" data-name="Groupe 3084" transform="translate(4.549 2.349)">
              <path id="Tracé_3285" data-name="Tracé 3285" d="M445.425,290.8l-16.231-4.97q1.081-.724,2.136-1.29l13.58,4.158C445.1,289.346,445.27,290.049,445.425,290.8Z" transform="translate(-394.563 -284.536)" fill="#988ca5"/>
              <path id="Tracé_3286" data-name="Tracé 3286" d="M449.879,299.705c0,.63-.022,1.271-.047,1.926l-28-8.574c.416-.532.834-1.055,1.253-1.558Z" transform="translate(-398.03 -281.257)" fill="#988ca5"/>
              <path id="Tracé_3287" data-name="Tracé 3287" d="M451.068,308.677q-.132.916-.287,1.855l-33.626-10.3c.306-.566.615-1.119.921-1.659Z" transform="translate(-400.233 -277.925)" fill="#988ca5"/>
              <path id="Tracé_3288" data-name="Tracé 3288" d="M450.328,317.046c-.154.594-.312,1.193-.477,1.795l-36.212-11.088c.24-.577.484-1.152.727-1.718Z" transform="translate(-401.889 -274.411)" fill="#988ca5"/>
              <path id="Tracé_3289" data-name="Tracé 3289" d="M447.56,326.435q-.333.863-.684,1.733l-36.695-11.237c.2-.581.4-1.167.609-1.755Z" transform="translate(-403.518 -270.106)" fill="#988ca5"/>
              <path id="Tracé_3290" data-name="Tracé 3290" d="M443.386,334.568c-.285.559-.575,1.115-.871,1.675l-35.032-10.728c.165-.58.338-1.178.518-1.786Z" transform="translate(-404.788 -266.077)" fill="#988ca5"/>
              <path id="Tracé_3291" data-name="Tracé 3291" d="M438.1,341.549c-.157.25-.319.5-.481.752l0,0c-.4.238-.791.463-1.191.674l-30.768-9.421a15.6,15.6,0,0,1,.244-1.868Z" transform="translate(-405.651 -262.329)" fill="#988ca5"/>
            </g>
          </g>
          <g id="Groupe_3087" data-name="Groupe 3087" transform="translate(0 196.487)">
            <path id="Tracé_3292" data-name="Tracé 3292" d="M384.2,342.651s-2.633-6.475-5.2-8.926-49.04-27.954-69.444-11.394Z" transform="translate(-306.233 -316.776)" fill="#aca5b5"/>
            <path id="Tracé_3293" data-name="Tracé 3293" d="M390.817,359.394s1.625-7.339-7.652-19.693-67.514-34.432-75.335-13.658Z" transform="translate(-307.047 -316.438)" fill="url(#linear-gradient-67)"/>
            <path id="Tracé_3294" data-name="Tracé 3294" d="M316.333,343.372q.6.73,1.247,1.47a96.458,96.458,0,0,0,7.271,7.467c.452.419.915.841,1.389,1.262,2.421,2.167,5.07,4.339,7.939,6.478.494.365.993.733,1.5,1.1a123.781,123.781,0,0,0,10.525,6.8q.8.463,1.621.918c3.235,1.8,6.655,3.523,10.254,5.125.574.256,1.149.507,1.731.756q4.7,2.01,9.8,3.727c.279.1.562.188.846.281h.007q.684-.093,1.349-.224c15.454-3.029,22.519-21,18.171-26.483-.044-.054-.094-.113-.149-.177a15.776,15.776,0,0,0-1.364-1.3c-1.709-1.48-4.566-3.663-8.139-6.18-.494-.349-1-.7-1.525-1.065-2.852-1.975-6.079-4.113-9.488-6.257-.521-.327-1.047-.653-1.575-.983-3.529-2.183-7.214-4.342-10.853-6.313-.549-.3-1.1-.591-1.645-.881-3.211-1.693-6.36-3.217-9.31-4.453-.593-.25-1.181-.487-1.759-.713-.693-.271-1.375-.524-2.039-.756a78.837,78.837,0,0,0-8.155-2.386c-.66-.153-1.312-.3-1.955-.424a46.069,46.069,0,0,0-13.074-.952q-1.3.117-2.471.338c-4.267.79-7.333,2.564-8.8,5.185-.718,1.281-.425,3.591.843,6.581q.4.94.919,1.959A57.255,57.255,0,0,0,316.333,343.372Z" transform="translate(-307.298 -315.695)" fill="url(#linear-gradient-68)"/>
            <g id="Groupe_3086" data-name="Groupe 3086" transform="translate(1.227 3.511)">
              <path id="Tracé_3295" data-name="Tracé 3295" d="M309.051,333.227l9.507-14.064q-1.3.117-2.471.338l-7.955,11.766Q308.527,332.207,309.051,333.227Z" transform="translate(-308.132 -319.163)" fill="#988ca5"/>
              <path id="Tracé_3296" data-name="Tracé 3296" d="M313.44,343.025q.6.73,1.247,1.47l16.4-24.261c-.66-.153-1.312-.3-1.955-.424Z" transform="translate(-305.632 -318.858)" fill="#988ca5"/>
              <path id="Tracé_3297" data-name="Tracé 3297" d="M319.231,350.819c.452.419.915.841,1.389,1.262l19.693-29.134c-.593-.25-1.181-.487-1.759-.713Z" transform="translate(-302.905 -317.717)" fill="#988ca5"/>
              <path id="Tracé_3298" data-name="Tracé 3298" d="M325.572,356.905c.494.365.993.733,1.5,1.1l21.208-31.376c-.549-.3-1.1-.591-1.645-.881Z" transform="translate(-299.918 -316.063)" fill="#988ca5"/>
              <path id="Tracé_3299" data-name="Tracé 3299" d="M333.747,362.5q.8.463,1.621.918l21.491-31.793c-.521-.327-1.047-.653-1.575-.983Z" transform="translate(-296.068 -313.759)" fill="#988ca5"/>
              <path id="Tracé_3300" data-name="Tracé 3300" d="M341.82,366.22c.574.256,1.149.507,1.731.756l20.518-30.352c-.494-.349-1-.7-1.525-1.065Z" transform="translate(-292.266 -311.441)" fill="#988ca5"/>
              <path id="Tracé_3301" data-name="Tracé 3301" d="M349.657,368.384c.279.1.562.188.846.281h.007q.684-.093,1.349-.224l18.022-26.66a15.78,15.78,0,0,0-1.364-1.3Z" transform="translate(-288.575 -309.122)" fill="#988ca5"/>
            </g>
          </g>
        </g>
        <path id="Tracé_3302" data-name="Tracé 3302" d="M502.833,338.522c-.154-.747-.327-1.45-.515-2.1-.891-3.124-2.115-5.1-3.477-5.65a8.249,8.249,0,0,0-3.113-.565,10.913,10.913,0,0,0-1.414-.224l.05-.069c-.313,0-.624.007-.936.021a13.753,13.753,0,0,0-3.721.478c-5.844,1.256-11.323,4.794-16.275,9.476-.356-3.015-1.041-8.974-1.6-14.832a26.3,26.3,0,0,0-4.639-12.258,15.427,15.427,0,0,0-3.919-4.132s-3.755-14.16-12.587-17.509c-.169-.066-.335-.127-.5-.185-.088-.032-.177-.062-.262-.093l-.007,0a20.056,20.056,0,0,0-8.286-1.218h0a7.346,7.346,0,0,0-1.561.221l-.051.01c-.131.028-.259.054-.382.084a10.224,10.224,0,0,0-1.886.643l-.021.01c-.153.062-.309.126-.472.2l.04-.06.038-.062.009-.016c.015-.022.028-.049.043-.075l.01-.021.046-.09.012-.026c.015-.034.031-.068.047-.106l.01-.026c.016-.04.034-.082.05-.126l.006-.019a5.079,5.079,0,0,0,.2-.75l.009-.044c.01-.062.022-.128.032-.194l.012-.079c.01-.065.019-.132.027-.2l.012-.1c.007-.071.013-.141.019-.216l.009-.107c0-.078.009-.156.013-.238l0-.106c0-.088.006-.177.006-.271v-.053c0-.241-.006-.5-.022-.774-.01-.166-.022-.34-.04-.521-.031-.318-.074-.659-.128-1.021a8.646,8.646,0,0,0,2.293-.846,10.208,10.208,0,0,0,3.545-2.9,3.387,3.387,0,0,0-.069-4.08,4.964,4.964,0,0,0-2.776-1.593,22.063,22.063,0,0,0-4.313-.708,29.525,29.525,0,0,0-.374-4.372c-.032-.191-.066-.384-.1-.575h0a17.456,17.456,0,0,0-.8-2.876s.872.6,2.321,1.374c.082.048.154.087.215.121.026.012.053.026.079.041.085.046.129.065.129.065v0c3.36,1.749,9.269,4.145,14.645,2.9a11.633,11.633,0,0,0,1.486-.446,17.6,17.6,0,0,0,1.917-.844,15.314,15.314,0,0,0,6.719-6.622,18.357,18.357,0,0,0,5.281-.187,17.671,17.671,0,0,0,7.38-3.113,2.179,2.179,0,0,0,1.04.633l.015,0c.06.021.124.04.19.059l.056.015c.049.013.1.026.152.038l.077.016c.048.01.1.021.15.029l.09.015c.052.009.1.016.157.024l.1.012c.054.007.112.013.169.018l.107.009c.06,0,.122.007.185.01l.112,0h.206c.037,0,.074,0,.112,0,.076,0,.156,0,.235-.006l.106,0c.091-.006.187-.012.284-.021l.081-.006c.256-.024.53-.057.819-.1h.009c.14-.024.284-.05.431-.079l.1-.021c.121-.025.241-.051.365-.079l.141-.034c.116-.028.232-.056.353-.088l.165-.044.215-.059c.06-.016.122-.035.182-.053l.072-.022c.178-.053.357-.107.543-.169,5.622-1.84,7.078-5.285,6.574-7.561a1.913,1.913,0,0,0-1.269-1.331h-.007c-1.621-.658-4.3-.337-5.448-.2-1.612.193-2.128-.213-1.575-1.447a1.014,1.014,0,0,1,.106-.178c.735-.332,1.4-.63,2.023-.927a17.2,17.2,0,0,0,3.558-2.145c1.7-1.371,2.324-4.016,1.79-6.521-.265-1.236-1.515-1.728-3.049-1.672a9.582,9.582,0,0,0-4.892,1.687c-2.8,1.97-4.008,1.646-4.431.062-.3-1.122,1.762-3.117,3.639-5.009l.126-.129a3.034,3.034,0,0,0,1.642-1.75l.024-.029c.087-.1.169-.2.247-.3,1.825-2.321-.254-6.044-4.226-6.037a3.08,3.08,0,0,0-1.131.21h0c-2.886,1.146-3.188,6.538-5.116,6.143-2.155-.443-.994-2.451,1.183-5.747.284-.434.574-.9.85-1.39l.076-.138a1.349,1.349,0,0,0,.5-.95l.012-.025c.038-.078.077-.157.113-.237l.031-.065c.035-.077.072-.153.106-.229l.031-.071c.034-.075.069-.151.1-.228l.025-.06c.1-.238.2-.478.285-.716l.044-.116.059-.169.049-.141c.018-.054.034-.107.051-.16s.031-.1.047-.149.031-.1.046-.157.029-.1.043-.152.028-.1.041-.153.025-.1.038-.152l.035-.152c.012-.051.022-.1.032-.153s.021-.1.031-.147.019-.107.028-.16.016-.091.023-.137q.02-.132.035-.265l.013-.14c.006-.054.01-.109.015-.163s0-.091.007-.135,0-.1.006-.147,0-.091,0-.137,0-.094,0-.14,0-.091-.006-.137-.006-.09-.009-.134-.009-.09-.013-.134-.01-.087-.018-.129-.012-.088-.021-.131-.016-.085-.025-.127-.018-.085-.028-.126-.024-.084-.035-.127-.022-.079-.035-.118-.037-.1-.057-.154-.044-.112-.069-.166-.04-.087-.062-.129-.038-.069-.057-.1-.043-.076-.066-.113-.044-.068-.066-.1-.05-.071-.077-.106-.05-.063-.075-.1-.057-.066-.088-.1-.054-.059-.084-.088-.066-.065-.1-.1-.059-.054-.091-.081-.078-.063-.118-.094l-.094-.071c-.047-.032-.1-.063-.146-.1l-.087-.054c-.082-.049-.166-.094-.256-.138a2.773,2.773,0,0,0-2.271-.009c-3.241,1.24-7.056,7.193-8.68,13.934a29.009,29.009,0,0,1-1.556,4.979c-.772,1.69-1.3,1.592-1.534,1.4a.6.6,0,0,1-.137-.157c-.93-.94-2.677-7.74-3.891-12.034-.2-.7-.409-1.367-.637-2-1.181-3.276-2.792-5.607-4.962-5.74-.087-.006-.172-.009-.256-.01-.038,0-.074,0-.112,0s-.09,0-.134,0-.081,0-.121.006-.079,0-.119.009l-.115.01-.116.016c-.025,0-.053.006-.078.01l-.022.006c-.093.016-.182.037-.269.06l-.068.019c-.087.026-.171.056-.25.088l-.049.022a2.3,2.3,0,0,0-.207.106l-.044.024a2.213,2.213,0,0,0-.206.143l-.054.043a2.2,2.2,0,0,0-.182.169l-.044.049c-.053.059-.1.121-.153.185l-.029.041a2.558,2.558,0,0,0-.14.221c-.012.024-.025.044-.037.068-.043.081-.084.166-.121.254l-.032.079c-.037.093-.072.19-.1.291l-.018.06c-.026.094-.053.191-.076.293-.006.028-.013.054-.019.082-.024.113-.046.231-.065.353l-.016.1c-.018.125-.034.254-.046.39l-.007.09c-.012.129-.021.263-.027.4l0,.071c-.006.153-.009.313-.01.477v.112c0,.165,0,.335.009.51l0,.1c.006.187.015.378.028.578a13.731,13.731,0,0,0,.4,2.493c.738,2.926,2.229,5.376,2.823,8.8a14.9,14.9,0,0,1,.187,2.843c-.463.172-.963.379-1.483.633a14.139,14.139,0,0,0-2.63,1.64h0c-.1.074-.19.152-.284.231h0a.187.187,0,0,0-.029.025l-.009.006-.009.007-.006.007c-.143.119-.282.244-.421.374-.046.043-.09.087-.134.131-.09.085-.178.171-.265.259-.069.072-.137.147-.206.222s-.115.124-.172.188c-.081.093-.16.19-.24.285-.028.034-.057.066-.084.1-.047.057-.1.116-.14.175a17.625,17.625,0,0,0-1.746-2.187,15.453,15.453,0,0,0-5.994-4.176q-.362-.867-.775-1.708c-.724-4.984-2.062-11.534-3.227-12.4-1.116-.831-1.955-1.88-8.535-1.208-.187-.125-.375-.247-.562-.368a17.924,17.924,0,0,0,.819-2.161q.115-1.6.093-3.155a22.218,22.218,0,0,0,4.583-1.873c1.624-1.3-3.318-17.385-5.138-17.387-.643,0-3.952.4-5.45.585a27.042,27.042,0,0,0-22.926-11.237L393.8,183.2c-5.257.107-9.7,1.428-13.2,4.155l.41,1.368c-8.3,4.845-12.608,13.729-12.627,23.018-1.289.734-4.242,2.424-4.763,2.814-1.456,1.09,4.2,16.937,6.275,17.01a21.583,21.583,0,0,0,4.684-1.2c.487.653,1,1.294,1.546,1.918-6,2.329-9.8,4.264-10.37,5.031-.788,1.056.406,6.012,1.439,9.661-2.106,1.386-4.55,4.27-5.369,10.275q-.064.446-.112.916a2.925,2.925,0,0,0-1.214.587,4.092,4.092,0,0,0-1,1.116c-.059.1-.116.194-.172.3s-.113.225-.168.346c-.015.032-.028.063-.041.1-.044.106-.088.216-.129.331l-.025.069c-.048.138-.093.285-.134.437l-.022.087c-.037.138-.069.282-.1.431l-.01.048-.006.035c-.022.115-.043.234-.062.356-.006.04-.012.077-.018.116-.022.159-.041.321-.056.49v0a.045.045,0,0,0,0,.019s-.01-.025-.032-.068v0c-.012-.024-.026-.05-.044-.082l-.028-.046-.041-.069-.035-.056c-.019-.029-.038-.059-.06-.091l-.041-.059c-.028-.038-.057-.078-.09-.119l-.041-.054c-.047-.059-.1-.119-.153-.184-.016-.019-.037-.04-.054-.059-.043-.049-.085-.1-.134-.146s-.088-.088-.132-.132c-.019-.018-.035-.035-.054-.053l-.029-.026c-.037-.034-.072-.068-.11-.1-.076-.069-.156-.14-.244-.21l-.007-.007a8.073,8.073,0,0,0-.884-.622l-.009,0a11.591,11.591,0,0,0-2.929-1.227c-1.09-3.749-2.468-7.069-2.518-10.239-.053-3.476.956-6.162,1.137-9.173a13.841,13.841,0,0,0-.075-2.524c-.024-.2-.051-.388-.079-.574l-.015-.1c-.028-.172-.056-.34-.087-.5l-.021-.112c-.032-.16-.065-.316-.1-.465l-.018-.069c-.031-.134-.065-.263-.1-.388l-.024-.087c-.038-.131-.078-.254-.119-.375l-.034-.1c-.043-.118-.085-.229-.131-.335l-.034-.078c-.041-.094-.085-.187-.129-.274l-.028-.054c-.05-.1-.1-.182-.156-.268l-.047-.072c-.053-.081-.109-.156-.166-.228l-.049-.059c-.057-.068-.118-.132-.178-.191l-.037-.034a2.242,2.242,0,0,0-.185-.154c-.018-.013-.034-.028-.053-.04a2.074,2.074,0,0,0-.209-.132l-.062-.032c-.075-.037-.15-.072-.228-.1l-.049-.015a2.187,2.187,0,0,0-.224-.065l-.053-.013a2.408,2.408,0,0,0-.26-.04l-.072-.007c-.09-.006-.181-.01-.275-.009H348.7l-.079,0-.116.006-.116.01-.118.015-.119.016-.132.024-.11.021c-.081.016-.165.035-.249.057-2.108.534-3.257,3.123-3.808,6.563-.106.665-.188,1.364-.253,2.083-.394,4.445-.846,11.451-1.586,12.549a.579.579,0,0,1-.106.178c-.2.231-.694.425-1.767-1.093a28.864,28.864,0,0,1-2.457-4.6c-2.849-6.321-7.7-11.46-11.119-12.077a2.766,2.766,0,0,0-2.23.431c-.079.059-.154.121-.225.182-.026.024-.05.047-.075.071-.044.04-.087.079-.126.121s-.053.059-.079.088-.068.075-.1.113-.05.063-.074.1-.056.075-.081.113-.046.068-.066.1-.046.075-.068.115-.038.071-.056.107-.038.078-.056.118-.032.074-.047.11-.029.082-.044.124-.025.074-.037.112-.024.093-.035.138-.028.121-.04.181-.019.106-.027.159-.007.082-.012.124-.009.085-.012.129,0,.087,0,.129,0,.085,0,.128l0,.134c0,.043,0,.085.007.129s.007.09.012.135.01.088.016.132.012.09.019.135.016.091.025.137.016.09.026.135.021.094.032.141.021.09.032.134l.044.156c.013.046.027.091.041.138.027.084.053.168.084.252.015.044.032.088.048.131s.037.1.056.152.038.093.057.14.04.1.06.143.043.1.063.143.043.094.065.141l.071.146c.022.046.046.093.069.138l.075.147c.024.046.049.09.072.135s.054.1.082.149.048.087.074.131.059.1.09.154.043.072.063.107c.132.219.272.437.416.653l.034.051c.046.069.094.137.141.2l.044.065c.048.069.1.137.147.206l.041.057c.053.071.1.143.157.213l.016.021a1.342,1.342,0,0,0,.666.841l.1.122c.362.428.733.833,1.093,1.206,2.751,2.835,4.266,4.592,2.23,5.428-1.82.747-3.12-4.5-6.168-5.085h0a3.087,3.087,0,0,0-1.15,0c-3.9.731-5.254,4.776-3.03,6.716.1.082.2.166.3.252l.029.025a3.035,3.035,0,0,0,1.939,1.414l.149.1c2.2,1.511,4.594,3.086,4.507,4.245-.121,1.636-1.246,2.178-4.366.763a9.6,9.6,0,0,0-5.119-.749c-1.52.232-2.657.949-2.686,2.211-.057,2.561,1.041,5.044,2.971,6.075a17.265,17.265,0,0,0,3.9,1.446c.663.175,1.375.343,2.159.534a.964.964,0,0,1,.137.156c.774,1.109.341,1.6-1.278,1.714-1.158.079-3.847.263-5.316,1.209l-.007,0a1.914,1.914,0,0,0-1,1.544c-.073,2.33,2,5.444,7.864,6.206.194.026.381.047.565.066l.075.007c.063.007.128.015.19.019s.146.012.221.018l.172.013c.122.009.243.015.36.021l.147.007q.19.007.371.009l.106,0c.15,0,.3,0,.437,0h.01c.294-.007.568-.025.825-.05l.079-.009c.1-.01.191-.021.282-.032l.106-.016c.079-.012.156-.024.231-.037.038-.006.075-.013.112-.021.069-.013.137-.026.2-.041l.109-.025c.062-.013.122-.029.181-.044l.1-.028.165-.049.094-.031c.051-.016.1-.034.152-.053l.084-.031c.05-.018.1-.038.143-.057l.072-.029c.049-.022.094-.043.138-.065l.056-.026c.062-.029.119-.06.175-.091l.013-.009a2.184,2.184,0,0,0,.9-.815,17.209,17.209,0,0,0,6.363,1.639l-.188.266s6.5,6.9,15.872,7.751a20.312,20.312,0,0,0,5.682-.272,21.721,21.721,0,0,0,4.441-1.346s3.976,1.093,9.594-2.1l.012-.007c.512-.291,1.038-.618,1.577-.984,0,0,.2.894.512,1.887.071.227.146.456.227.683l-.006-.013s-.041.032-.113.093c-.048.04-.11.093-.185.157-.112.1-.251.216-.412.357-1.35,1.2-4.135,3.9-3.851,5.468.3,1.656,1.728,2.337,4.063,2.3-.2.118-1.049.622-2.117,1.28l-.019.009c-1.572.965-3.61,2.251-4.726,3.11l-.09.074-.009.006c-1.917,1.525-2.729,3.641-5.987,6.149-3.313,2.551-3.188,4.4-4.46,9.6-.555,2.27-1.155,4.541-1.652,6.381-.647,2.381-1.125,4.039-1.125,4.039a19.8,19.8,0,0,0-2.224,2.557l-.066.09-.024.034c-.032.043-.063.085-.1.131l-.053.075,0,0h0a21.679,21.679,0,0,0-1.437,2.289,18.231,18.231,0,0,0-1.23,2.795,15.153,15.153,0,0,0-.484,1.709,47.815,47.815,0,0,0-.921,6.683c-.062.9-.1,1.718-.122,2.424-.049,1.581-.019,2.592-.019,2.592a17.66,17.66,0,0,0-1.467,2.048l-.006.007a22.426,22.426,0,0,0-2.051,4.163,18.106,18.106,0,0,0-1.074,4.791c-.438,5.537,5.691,20.82,7.2,24.493-12.1-3.541-25.356-5.154-34.922-.327a13.661,13.661,0,0,0-3.195,1.967c-.25.185-.5.375-.741.571l.081.022a11.112,11.112,0,0,0-.958,1.062,8.237,8.237,0,0,0-2.067,2.395c-.718,1.281-.425,3.591.843,6.581q.4.94.919,1.959a57.255,57.255,0,0,0,6.889,10.1q.6.73,1.247,1.469a96.458,96.458,0,0,0,7.271,7.467c.452.419.915.841,1.389,1.262,2.421,2.167,5.07,4.339,7.94,6.478.493.365.991.733,1.5,1.1a123.789,123.789,0,0,0,10.525,6.8q.8.463,1.621.918c3.235,1.8,6.655,3.523,10.254,5.125.574.256,1.149.507,1.731.756q4.7,2.01,9.8,3.727c.279.1.562.188.846.281h.007q.684-.093,1.349-.224c11.3-2.214,18.108-12.408,19.259-19.876a4.7,4.7,0,0,0,.066-.478,9.9,9.9,0,0,0-.455-4.913,35.884,35.884,0,0,0-5.41-11.69,47.957,47.957,0,0,0-3.183-6.3,127.791,127.791,0,0,0-.19-15.52c-.768-7.853-3.277-13.959-2.867-18.172,0,0,3.75-1.73,6.827-14.721.384-1.608.753-3.383,1.1-5.351,0,0,.1-.027.278-.084,1.619-.522,9.9-3.492,13.161-10.831,3.629-8.152,7.269-9.33,9.216-8.068s10.151,9.073,22.2,8.483c0,0,.347.781,1,1.978v0a39.148,39.148,0,0,0,3.043,4.731,21.909,21.909,0,0,0,7.562,6.68,80.328,80.328,0,0,1,1.137,16.663c-.185,7.533.671,16.835,3.288,22.517a51.829,51.829,0,0,0,1.2,5.048,35.881,35.881,0,0,0,3.133,12.494,9.919,9.919,0,0,0,2.733,4.108,4.765,4.765,0,0,0,.352.329c5.588,5.088,17.293,8.74,27.47,3.367.4-.21.8-.435,1.191-.674l0,0c.162-.252.324-.5.481-.752q2.893-4.53,5.282-9.054c.3-.56.585-1.116.871-1.675,1.8-3.508,3.376-6.994,4.76-10.429q.351-.869.684-1.733a123.816,123.816,0,0,0,3.92-11.9c.165-.6.322-1.2.477-1.795.89-3.467,1.586-6.821,2.109-10.028q.154-.94.287-1.855a96.287,96.287,0,0,0,.966-10.378c.025-.655.043-1.3.049-1.925A57.219,57.219,0,0,0,502.833,338.522Zm-151.619-9.655-.009.012.012-.016Zm22.678-35.472c-.1-.009-.2-.022-.284-.038a1.463,1.463,0,0,1-.6-.232.82.82,0,0,1-.226-.243.867.867,0,0,1-.068-.146,1.01,1.01,0,0,1-.053-.325,2.715,2.715,0,0,1,.354-1.177c.071-.138.15-.279.235-.418.169-.279.359-.553.55-.809l.143-.188c.1-.122.188-.238.278-.347.4-.49.725-.822.725-.822A20.865,20.865,0,0,0,373.891,293.395Zm62.347-13.981v.01s4.984-.874,5.757.235c.556.8.19,2.024-1.8,2.764a10.992,10.992,0,0,1-3.011.585c-.249-.952-.574-2.009-.993-3.186C436.193,279.822,436.212,279.676,436.238,279.413Z" transform="translate(-307.298 -183.199)" fill="url(#linear-gradient-69)" style="mix-blend-mode: overlay;isolation: isolate"/>
        <path id="Tracé_3303" data-name="Tracé 3303" d="M502.833,338.522c-.154-.747-.327-1.45-.515-2.1-.891-3.124-2.115-5.1-3.477-5.65a8.249,8.249,0,0,0-3.113-.565,10.913,10.913,0,0,0-1.414-.224l.05-.069c-.313,0-.624.007-.936.021a13.753,13.753,0,0,0-3.721.478c-5.844,1.256-11.323,4.794-16.275,9.476-.356-3.015-1.041-8.974-1.6-14.832a26.3,26.3,0,0,0-4.639-12.258,15.427,15.427,0,0,0-3.919-4.132s-3.755-14.16-12.587-17.509c-.169-.066-.335-.127-.5-.185-.088-.032-.177-.062-.262-.093l-.007,0a20.056,20.056,0,0,0-8.286-1.218h0a7.346,7.346,0,0,0-1.561.221l-.051.01c-.131.028-.259.054-.382.084a10.224,10.224,0,0,0-1.886.643l-.021.01c-.153.062-.309.126-.472.2l.04-.06.038-.062.009-.016c.015-.022.028-.049.043-.075l.01-.021.046-.09.012-.026c.015-.034.031-.068.047-.106l.01-.026c.016-.04.034-.082.05-.126l.006-.019a5.079,5.079,0,0,0,.2-.75l.009-.044c.01-.062.022-.128.032-.194l.012-.079c.01-.065.019-.132.027-.2l.012-.1c.007-.071.013-.141.019-.216l.009-.107c0-.078.009-.156.013-.238l0-.106c0-.088.006-.177.006-.271v-.053c0-.241-.006-.5-.022-.774-.01-.166-.022-.34-.04-.521-.031-.318-.074-.659-.128-1.021a8.646,8.646,0,0,0,2.293-.846,10.208,10.208,0,0,0,3.545-2.9,3.387,3.387,0,0,0-.069-4.08,4.964,4.964,0,0,0-2.776-1.593,22.063,22.063,0,0,0-4.313-.708,29.525,29.525,0,0,0-.374-4.372c-.032-.191-.066-.384-.1-.575h0a17.456,17.456,0,0,0-.8-2.876s.872.6,2.321,1.374c.082.048.154.087.215.121.026.012.053.026.079.041.085.046.129.065.129.065v0c3.36,1.749,9.269,4.145,14.645,2.9a11.633,11.633,0,0,0,1.486-.446,17.6,17.6,0,0,0,1.917-.844,15.314,15.314,0,0,0,6.719-6.622,18.357,18.357,0,0,0,5.281-.187,17.671,17.671,0,0,0,7.38-3.113,2.179,2.179,0,0,0,1.04.633l.015,0c.06.021.124.04.19.059l.056.015c.049.013.1.026.152.038l.077.016c.048.01.1.021.15.029l.09.015c.052.009.1.016.157.024l.1.012c.054.007.112.013.169.018l.107.009c.06,0,.122.007.185.01l.112,0h.206c.037,0,.074,0,.112,0,.076,0,.156,0,.235-.006l.106,0c.091-.006.187-.012.284-.021l.081-.006c.256-.024.53-.057.819-.1h.009c.14-.024.284-.05.431-.079l.1-.021c.121-.025.241-.051.365-.079l.141-.034c.116-.028.232-.056.353-.088l.165-.044.215-.059c.06-.016.122-.035.182-.053l.072-.022c.178-.053.357-.107.543-.169,5.622-1.84,7.078-5.285,6.574-7.561a1.913,1.913,0,0,0-1.269-1.331h-.007c-1.621-.658-4.3-.337-5.448-.2-1.612.193-2.128-.213-1.575-1.447a1.014,1.014,0,0,1,.106-.178c.735-.332,1.4-.63,2.023-.927a17.2,17.2,0,0,0,3.558-2.145c1.7-1.371,2.324-4.016,1.79-6.521-.265-1.236-1.515-1.728-3.049-1.672a9.582,9.582,0,0,0-4.892,1.687c-2.8,1.97-4.008,1.646-4.431.062-.3-1.122,1.762-3.117,3.639-5.009l.126-.129a3.034,3.034,0,0,0,1.642-1.75l.024-.029c.087-.1.169-.2.247-.3,1.825-2.321-.254-6.044-4.226-6.037a3.08,3.08,0,0,0-1.131.21h0c-2.886,1.146-3.188,6.538-5.116,6.143-2.155-.443-.994-2.451,1.183-5.747.284-.434.574-.9.85-1.39l.076-.138a1.349,1.349,0,0,0,.5-.95l.012-.025c.038-.078.077-.157.113-.237l.031-.065c.035-.077.072-.153.106-.229l.031-.071c.034-.075.069-.151.1-.228l.025-.06c.1-.238.2-.478.285-.716l.044-.116.059-.169.049-.141c.018-.054.034-.107.051-.16s.031-.1.047-.149.031-.1.046-.157.029-.1.043-.152.028-.1.041-.153.025-.1.038-.152l.035-.152c.012-.051.022-.1.032-.153s.021-.1.031-.147.019-.107.028-.16.016-.091.023-.137q.02-.132.035-.265l.013-.14c.006-.054.01-.109.015-.163s0-.091.007-.135,0-.1.006-.147,0-.091,0-.137,0-.094,0-.14,0-.091-.006-.137-.006-.09-.009-.134-.009-.09-.013-.134-.01-.087-.018-.129-.012-.088-.021-.131-.016-.085-.025-.127-.018-.085-.028-.126-.024-.084-.035-.127-.022-.079-.035-.118-.037-.1-.057-.154-.044-.112-.069-.166-.04-.087-.062-.129-.038-.069-.057-.1-.043-.076-.066-.113-.044-.068-.066-.1-.05-.071-.077-.106-.05-.063-.075-.1-.057-.066-.088-.1-.054-.059-.084-.088-.066-.065-.1-.1-.059-.054-.091-.081-.078-.063-.118-.094l-.094-.071c-.047-.032-.1-.063-.146-.1l-.087-.054c-.082-.049-.166-.094-.256-.138a2.773,2.773,0,0,0-2.271-.009c-3.241,1.24-7.056,7.193-8.68,13.934a29.009,29.009,0,0,1-1.556,4.979c-.772,1.69-1.3,1.592-1.534,1.4a.6.6,0,0,1-.137-.157c-.93-.94-2.677-7.74-3.891-12.034-.2-.7-.409-1.367-.637-2-1.181-3.276-2.792-5.607-4.962-5.74-.087-.006-.172-.009-.256-.01-.038,0-.074,0-.112,0s-.09,0-.134,0-.081,0-.121.006-.079,0-.119.009l-.115.01-.116.016c-.025,0-.053.006-.078.01l-.022.006c-.093.016-.182.037-.269.06l-.068.019c-.087.026-.171.056-.25.088l-.049.022a2.3,2.3,0,0,0-.207.106l-.044.024a2.213,2.213,0,0,0-.206.143l-.054.043a2.2,2.2,0,0,0-.182.169l-.044.049c-.053.059-.1.121-.153.185l-.029.041a2.558,2.558,0,0,0-.14.221c-.012.024-.025.044-.037.068-.043.081-.084.166-.121.254l-.032.079c-.037.093-.072.19-.1.291l-.018.06c-.026.094-.053.191-.076.293-.006.028-.013.054-.019.082-.024.113-.046.231-.065.353l-.016.1c-.018.125-.034.254-.046.39l-.007.09c-.012.129-.021.263-.027.4l0,.071c-.006.153-.009.313-.01.477v.112c0,.165,0,.335.009.51l0,.1c.006.187.015.378.028.578a13.731,13.731,0,0,0,.4,2.493c.738,2.926,2.229,5.376,2.823,8.8a14.9,14.9,0,0,1,.187,2.843c-.463.172-.963.379-1.483.633a14.139,14.139,0,0,0-2.63,1.64h0c-.1.074-.19.152-.284.231h0a.187.187,0,0,0-.029.025l-.009.006-.009.007-.006.007c-.143.119-.282.244-.421.374-.046.043-.09.087-.134.131-.09.085-.178.171-.265.259-.069.072-.137.147-.206.222s-.115.124-.172.188c-.081.093-.16.19-.24.285-.028.034-.057.066-.084.1-.047.057-.1.116-.14.175a17.625,17.625,0,0,0-1.746-2.187,15.453,15.453,0,0,0-5.994-4.176q-.362-.867-.775-1.708c-.724-4.984-2.062-11.534-3.227-12.4-1.116-.831-1.955-1.88-8.535-1.208-.187-.125-.375-.247-.562-.368a17.924,17.924,0,0,0,.819-2.161q.115-1.6.093-3.155a22.218,22.218,0,0,0,4.583-1.873c1.624-1.3-3.318-17.385-5.138-17.387-.643,0-3.952.4-5.45.585a27.042,27.042,0,0,0-22.926-11.237L393.8,183.2c-5.257.107-9.7,1.428-13.2,4.155l.41,1.368c-8.3,4.845-12.608,13.729-12.627,23.018-1.289.734-4.242,2.424-4.763,2.814-1.456,1.09,4.2,16.937,6.275,17.01a21.583,21.583,0,0,0,4.684-1.2c.487.653,1,1.294,1.546,1.918-6,2.329-9.8,4.264-10.37,5.031-.788,1.056.406,6.012,1.439,9.661-2.106,1.386-4.55,4.27-5.369,10.275q-.064.446-.112.916a2.925,2.925,0,0,0-1.214.587,4.092,4.092,0,0,0-1,1.116c-.059.1-.116.194-.172.3s-.113.225-.168.346c-.015.032-.028.063-.041.1-.044.106-.088.216-.129.331l-.025.069c-.048.138-.093.285-.134.437l-.022.087c-.037.138-.069.282-.1.431l-.01.048-.006.035c-.022.115-.043.234-.062.356-.006.04-.012.077-.018.116-.022.159-.041.321-.056.49v0a.045.045,0,0,0,0,.019s-.01-.025-.032-.068v0c-.012-.024-.026-.05-.044-.082l-.028-.046-.041-.069-.035-.056c-.019-.029-.038-.059-.06-.091l-.041-.059c-.028-.038-.057-.078-.09-.119l-.041-.054c-.047-.059-.1-.119-.153-.184-.016-.019-.037-.04-.054-.059-.043-.049-.085-.1-.134-.146s-.088-.088-.132-.132c-.019-.018-.035-.035-.054-.053l-.029-.026c-.037-.034-.072-.068-.11-.1-.076-.069-.156-.14-.244-.21l-.007-.007a8.073,8.073,0,0,0-.884-.622l-.009,0a11.591,11.591,0,0,0-2.929-1.227c-1.09-3.749-2.468-7.069-2.518-10.239-.053-3.476.956-6.162,1.137-9.173a13.841,13.841,0,0,0-.075-2.524c-.024-.2-.051-.388-.079-.574l-.015-.1c-.028-.172-.056-.34-.087-.5l-.021-.112c-.032-.16-.065-.316-.1-.465l-.018-.069c-.031-.134-.065-.263-.1-.388l-.024-.087c-.038-.131-.078-.254-.119-.375l-.034-.1c-.043-.118-.085-.229-.131-.335l-.034-.078c-.041-.094-.085-.187-.129-.274l-.028-.054c-.05-.1-.1-.182-.156-.268l-.047-.072c-.053-.081-.109-.156-.166-.228l-.049-.059c-.057-.068-.118-.132-.178-.191l-.037-.034a2.242,2.242,0,0,0-.185-.154c-.018-.013-.034-.028-.053-.04a2.074,2.074,0,0,0-.209-.132l-.062-.032c-.075-.037-.15-.072-.228-.1l-.049-.015a2.187,2.187,0,0,0-.224-.065l-.053-.013a2.408,2.408,0,0,0-.26-.04l-.072-.007c-.09-.006-.181-.01-.275-.009H348.7l-.079,0-.116.006-.116.01-.118.015-.119.016-.132.024-.11.021c-.081.016-.165.035-.249.057-2.108.534-3.257,3.123-3.808,6.563-.106.665-.188,1.364-.253,2.083-.394,4.445-.846,11.451-1.586,12.549a.579.579,0,0,1-.106.178c-.2.231-.694.425-1.767-1.093a28.864,28.864,0,0,1-2.457-4.6c-2.849-6.321-7.7-11.46-11.119-12.077a2.766,2.766,0,0,0-2.23.431c-.079.059-.154.121-.225.182-.026.024-.05.047-.075.071-.044.04-.087.079-.126.121s-.053.059-.079.088-.068.075-.1.113-.05.063-.074.1-.056.075-.081.113-.046.068-.066.1-.046.075-.068.115-.038.071-.056.107-.038.078-.056.118-.032.074-.047.11-.029.082-.044.124-.025.074-.037.112-.024.093-.035.138-.028.121-.04.181-.019.106-.027.159-.007.082-.012.124-.009.085-.012.129,0,.087,0,.129,0,.085,0,.128l0,.134c0,.043,0,.085.007.129s.007.09.012.135.01.088.016.132.012.09.019.135.016.091.025.137.016.09.026.135.021.094.032.141.021.09.032.134l.044.156c.013.046.027.091.041.138.027.084.053.168.084.252.015.044.032.088.048.131s.037.1.056.152.038.093.057.14.04.1.06.143.043.1.063.143.043.094.065.141l.071.146c.022.046.046.093.069.138l.075.147c.024.046.049.09.072.135s.054.1.082.149.048.087.074.131.059.1.09.154.043.072.063.107c.132.219.272.437.416.653l.034.051c.046.069.094.137.141.2l.044.065c.048.069.1.137.147.206l.041.057c.053.071.1.143.157.213l.016.021a1.342,1.342,0,0,0,.666.841l.1.122c.362.428.733.833,1.093,1.206,2.751,2.835,4.266,4.592,2.23,5.428-1.82.747-3.12-4.5-6.168-5.085h0a3.087,3.087,0,0,0-1.15,0c-3.9.731-5.254,4.776-3.03,6.716.1.082.2.166.3.252l.029.025a3.035,3.035,0,0,0,1.939,1.414l.149.1c2.2,1.511,4.594,3.086,4.507,4.245-.121,1.636-1.246,2.178-4.366.763a9.6,9.6,0,0,0-5.119-.749c-1.52.232-2.657.949-2.686,2.211-.057,2.561,1.041,5.044,2.971,6.075a17.265,17.265,0,0,0,3.9,1.446c.663.175,1.375.343,2.159.534a.964.964,0,0,1,.137.156c.774,1.109.341,1.6-1.278,1.714-1.158.079-3.847.263-5.316,1.209l-.007,0a1.914,1.914,0,0,0-1,1.544c-.073,2.33,2,5.444,7.864,6.206.194.026.381.047.565.066l.075.007c.063.007.128.015.19.019s.146.012.221.018l.172.013c.122.009.243.015.36.021l.147.007q.19.007.371.009l.106,0c.15,0,.3,0,.437,0h.01c.294-.007.568-.025.825-.05l.079-.009c.1-.01.191-.021.282-.032l.106-.016c.079-.012.156-.024.231-.037.038-.006.075-.013.112-.021.069-.013.137-.026.2-.041l.109-.025c.062-.013.122-.029.181-.044l.1-.028.165-.049.094-.031c.051-.016.1-.034.152-.053l.084-.031c.05-.018.1-.038.143-.057l.072-.029c.049-.022.094-.043.138-.065l.056-.026c.062-.029.119-.06.175-.091l.013-.009a2.184,2.184,0,0,0,.9-.815,17.209,17.209,0,0,0,6.363,1.639l-.188.266s6.5,6.9,15.872,7.751a20.312,20.312,0,0,0,5.682-.272,21.721,21.721,0,0,0,4.441-1.346s3.976,1.093,9.594-2.1l.012-.007c.512-.291,1.038-.618,1.577-.984,0,0,.2.894.512,1.887.071.227.146.456.227.683l-.006-.013s-.041.032-.113.093c-.048.04-.11.093-.185.157-.112.1-.251.216-.412.357-1.35,1.2-4.135,3.9-3.851,5.468.3,1.656,1.728,2.337,4.063,2.3-.2.118-1.049.622-2.117,1.28l-.019.009c-1.572.965-3.61,2.251-4.726,3.11l-.09.074-.009.006c-1.917,1.525-2.729,3.641-5.987,6.149-3.313,2.551-3.188,4.4-4.46,9.6-.555,2.27-1.155,4.541-1.652,6.381-.647,2.381-1.125,4.039-1.125,4.039a19.8,19.8,0,0,0-2.224,2.557l-.066.09-.024.034c-.032.043-.063.085-.1.131l-.053.075,0,0h0a21.679,21.679,0,0,0-1.437,2.289,18.231,18.231,0,0,0-1.23,2.795,15.153,15.153,0,0,0-.484,1.709,47.815,47.815,0,0,0-.921,6.683c-.062.9-.1,1.718-.122,2.424-.049,1.581-.019,2.592-.019,2.592a17.66,17.66,0,0,0-1.467,2.048l-.006.007a22.426,22.426,0,0,0-2.051,4.163,18.106,18.106,0,0,0-1.074,4.791c-.438,5.537,5.691,20.82,7.2,24.493-12.1-3.541-25.356-5.154-34.922-.327a13.661,13.661,0,0,0-3.195,1.967c-.25.185-.5.375-.741.571l.081.022a11.112,11.112,0,0,0-.958,1.062,8.237,8.237,0,0,0-2.067,2.395c-.718,1.281-.425,3.591.843,6.581q.4.94.919,1.959a57.255,57.255,0,0,0,6.889,10.1q.6.73,1.247,1.469a96.458,96.458,0,0,0,7.271,7.467c.452.419.915.841,1.389,1.262,2.421,2.167,5.07,4.339,7.94,6.478.493.365.991.733,1.5,1.1a123.789,123.789,0,0,0,10.525,6.8q.8.463,1.621.918c3.235,1.8,6.655,3.523,10.254,5.125.574.256,1.149.507,1.731.756q4.7,2.01,9.8,3.727c.279.1.562.188.846.281h.007q.684-.093,1.349-.224c11.3-2.214,18.108-12.408,19.259-19.876a4.7,4.7,0,0,0,.066-.478,9.9,9.9,0,0,0-.455-4.913,35.884,35.884,0,0,0-5.41-11.69,47.957,47.957,0,0,0-3.183-6.3,127.791,127.791,0,0,0-.19-15.52c-.768-7.853-3.277-13.959-2.867-18.172,0,0,3.75-1.73,6.827-14.721.384-1.608.753-3.383,1.1-5.351,0,0,.1-.027.278-.084,1.619-.522,9.9-3.492,13.161-10.831,3.629-8.152,7.269-9.33,9.216-8.068s10.151,9.073,22.2,8.483c0,0,.347.781,1,1.978v0a39.148,39.148,0,0,0,3.043,4.731,21.909,21.909,0,0,0,7.562,6.68,80.328,80.328,0,0,1,1.137,16.663c-.185,7.533.671,16.835,3.288,22.517a51.829,51.829,0,0,0,1.2,5.048,35.881,35.881,0,0,0,3.133,12.494,9.919,9.919,0,0,0,2.733,4.108,4.765,4.765,0,0,0,.352.329c5.588,5.088,17.293,8.74,27.47,3.367.4-.21.8-.435,1.191-.674l0,0c.162-.252.324-.5.481-.752q2.893-4.53,5.282-9.054c.3-.56.585-1.116.871-1.675,1.8-3.508,3.376-6.994,4.76-10.429q.351-.869.684-1.733a123.816,123.816,0,0,0,3.92-11.9c.165-.6.322-1.2.477-1.795.89-3.467,1.586-6.821,2.109-10.028q.154-.94.287-1.855a96.287,96.287,0,0,0,.966-10.378c.025-.655.043-1.3.049-1.925A57.219,57.219,0,0,0,502.833,338.522Zm-151.619-9.655-.009.012.012-.016Zm22.678-35.472c-.1-.009-.2-.022-.284-.038a1.463,1.463,0,0,1-.6-.232.82.82,0,0,1-.226-.243.867.867,0,0,1-.068-.146,1.01,1.01,0,0,1-.053-.325,2.715,2.715,0,0,1,.354-1.177c.071-.138.15-.279.235-.418.169-.279.359-.553.55-.809l.143-.188c.1-.122.188-.238.278-.347.4-.49.725-.822.725-.822A20.865,20.865,0,0,0,373.891,293.395Zm62.347-13.981v.01s4.984-.874,5.757.235c.556.8.19,2.024-1.8,2.764a10.992,10.992,0,0,1-3.011.585c-.249-.952-.574-2.009-.993-3.186C436.193,279.822,436.212,279.676,436.238,279.413Z" transform="translate(-307.298 -183.199)" opacity="0" fill="url(#linear-gradient-70)" style="mix-blend-mode: overlay;isolation: isolate"/>
      </g>
    </g>
    <g id="Groupe_3226" data-name="Groupe 3226" transform="translate(693.643 199.679)">
      <g id="Groupe_3224" data-name="Groupe 3224" transform="translate(0 176.481)">
        <ellipse id="Ellipse_85" data-name="Ellipse 85" cx="21.769" cy="21.769" rx="21.769" ry="21.769" transform="translate(14.539)" fill="#336ad6"/>
        <path id="Tracé_3401" data-name="Tracé 3401" d="M188.254,146.837a21.656,21.656,0,0,0-10.647,2.791,3.713,3.713,0,0,0,.533.715c2.2,2.22,7.441,2.315,10.365,2.453a35.682,35.682,0,0,0,12.669-1.682A21.633,21.633,0,0,0,188.254,146.837Z" transform="translate(-151.946 -146.837)" fill="#f58220" fill-rule="evenodd"/>
        <path id="Tracé_3402" data-name="Tracé 3402" d="M209.508,155.158a11.627,11.627,0,0,0,2.1-.895,21.843,21.843,0,0,0-1.883-2.732l-6.514,2.916a33.734,33.734,0,0,1-5.165,1.982,30.869,30.869,0,0,1-8.1.71,164.152,164.152,0,0,1-16.732-1.193,21.569,21.569,0,0,0-1.627,13.947,19.564,19.564,0,0,0,3.2-1.864,43.154,43.154,0,0,1,9.028-3.935Z" transform="translate(-156.554 -143.516)" fill="#f58220" fill-rule="evenodd"/>
        <path id="Tracé_3403" data-name="Tracé 3403" d="M202.747,154.561c-1.685,1.506-2.935,3.505-4.777,4.943a25.6,25.6,0,0,1-6.374,3.647c-1.613.632-3.3,1.1-4.842,1.887a2.233,2.233,0,0,0-1.323,1.321c-.249,1.111,1.059,1.912,2.168,2.17a25.007,25.007,0,0,0,6.759.321l8.043-.348c.476-.02.965-.06,1.446-.118a21.494,21.494,0,0,0-1.1-13.823Z" transform="translate(-146.434 -141.373)" fill="#f58220" fill-rule="evenodd"/>
        <path id="Tracé_3404" data-name="Tracé 3404" d="M193.008,159.242a50.544,50.544,0,0,0-11.239,3.666,57.546,57.546,0,0,1-7.234,3.169,12.721,12.721,0,0,1-2.841.353,21.8,21.8,0,0,0,6.915,10.212c.224-.266.442-.536.649-.813,3.256-4.326,5.467-9.78,10.167-12.467a15.044,15.044,0,0,0,2.523-1.52A2.769,2.769,0,0,0,193.008,159.242Z" transform="translate(-156.129 -138.062)" fill="#f58220" fill-rule="evenodd"/>
        <path id="Tracé_3405" data-name="Tracé 3405" d="M207.386,165.046a4.523,4.523,0,0,0-.724-.024l-13.942.773c-2.889.16-5.936.372-8.328,2a16.1,16.1,0,0,0-4.255,5.1c-.4.642-1.118,1.533-1.786,2.477a21.616,21.616,0,0,0,8.812,2.117c.569-.714,1.084-1.484,1.636-2.213a19.166,19.166,0,0,1,13.1-7.408c1.361-.145,2.735-.149,4.092-.294A21.466,21.466,0,0,0,207.386,165.046Z" transform="translate(-151.42 -133.977)" fill="#f58220" fill-rule="evenodd"/>
        <path id="Tracé_3406" data-name="Tracé 3406" d="M211.3,166.328a21.691,21.691,0,0,0,1.3-4.052,134.663,134.663,0,0,1-19.3,5.137,133.765,133.765,0,0,1-20.022,2.447A21.933,21.933,0,0,0,176,173.142a142.837,142.837,0,0,0,17.946-2.377A143.649,143.649,0,0,0,211.3,166.328Z" transform="translate(-155.012 -135.916)" fill="#618de5" fill-rule="evenodd"/>
        <g id="Groupe_3223" data-name="Groupe 3223" transform="translate(0 11.36)">
          <path id="Tracé_3407" data-name="Tracé 3407" d="M177.537,177.833c-7.8,0-14.166-1.243-14.893-4.994-.683-3.533,3.93-7.2,13.717-10.9a1.707,1.707,0,1,1,1.207,3.194c-9.909,3.748-11.668,6.563-11.571,7.058.362,1.868,12.658,4.031,34.862-.271a120.16,120.16,0,0,0,24.174-7.046c7.178-3.138,8.349-5.308,8.269-5.72-.1-.516-2.909-2.532-14.069-2.209a1.707,1.707,0,0,1-.1-3.413c10.915-.326,16.821,1.352,17.523,4.974.6,3.112-2.751,6.218-10.254,9.5a123.619,123.619,0,0,1-24.893,7.272A137.517,137.517,0,0,1,177.537,177.833Z" transform="translate(-162.577 -153.491)" fill="#f58220"/>
        </g>
      </g>
      <g id="Groupe_3225" data-name="Groupe 3225" transform="translate(403.799 0)">
        <ellipse id="Ellipse_86" data-name="Ellipse 86" cx="8.569" cy="8.569" rx="8.569" ry="8.569" transform="translate(0 3.242) rotate(-10.903)" fill="#133b89"/>
        <path id="Tracé_3408" data-name="Tracé 3408" d="M385.2,174.1a8.528,8.528,0,0,0-4.208-1.029,1.428,1.428,0,0,0,.05.348c.345,1.181,2.142,2.2,3.128,2.792a14.054,14.054,0,0,0,4.7,1.791A8.52,8.52,0,0,0,385.2,174.1Z" transform="translate(-371.087 -171.602)" fill="#336ad6" fill-rule="evenodd"/>
        <path id="Tracé_3409" data-name="Tracé 3409" d="M387.174,181.58a4.634,4.634,0,0,0,.9.084,8.55,8.55,0,0,0-.139-1.3l-2.8-.21a13.406,13.406,0,0,1-2.16-.282,12.193,12.193,0,0,1-2.937-1.272,64.693,64.693,0,0,1-5.568-3.548,8.48,8.48,0,0,0-3.176,4.523,7.764,7.764,0,0,0,1.458-.044,16.919,16.919,0,0,1,3.863.329Z" transform="translate(-369.479 -171.931)" fill="#336ad6" fill-rule="evenodd"/>
        <path id="Tracé_3410" data-name="Tracé 3410" d="M389.723,184.271c-.866.205-1.674.663-2.58.816a10.077,10.077,0,0,1-2.89.068c-.677-.083-1.348-.235-2.03-.254a.878.878,0,0,0-.705.209c-.3.338.008.86.343,1.157a9.856,9.856,0,0,0,2.28,1.377l2.849,1.387c.169.083.345.16.523.23a8.465,8.465,0,0,0,2.209-4.991Z" transform="translate(-371.154 -173.458)" fill="#336ad6" fill-rule="evenodd"/>
        <path id="Tracé_3411" data-name="Tracé 3411" d="M379.753,182.923a19.853,19.853,0,0,0-4.577-.837,22.7,22.7,0,0,1-3.1-.259,5.057,5.057,0,0,1-1.05-.41,8.582,8.582,0,0,0,.48,4.831c.128-.05.254-.1.377-.159,1.937-.888,3.725-2.361,5.856-2.41a6.019,6.019,0,0,0,1.158-.053A1.09,1.09,0,0,0,379.753,182.923Z" transform="translate(-369.411 -172.985)" fill="#336ad6" fill-rule="evenodd"/>
        <path id="Tracé_3412" data-name="Tracé 3412" d="M384.836,190.942a1.782,1.782,0,0,0-.246-.144l-4.972-2.344a4.761,4.761,0,0,0-5.686.1c-.258.148-.674.321-1.082.523a8.5,8.5,0,0,0,2.654,2.384c.33-.14.653-.31.981-.46a7.552,7.552,0,0,1,5.922-.11c.5.205.974.461,1.471.666A8.576,8.576,0,0,0,384.836,190.942Z" transform="translate(-369.738 -174.004)" fill="#336ad6" fill-rule="evenodd"/>
      </g>
    </g>
    <g id="Groupe_3227" data-name="Groupe 3227" transform="translate(567.195 148.39)">
      <circle id="Ellipse_87" data-name="Ellipse 87" cx="28.758" cy="28.758" r="28.758" transform="translate(0 40.67) rotate(-45)" fill="#f58220"/>
      <path id="Tracé_3413" data-name="Tracé 3413" d="M215.807,211.189c8.532,1.213,22.875-4.88,27.472-5.773,9.347-1.813,18.947.346,28.474.662a28.607,28.607,0,0,0-2.644-5.909c-3.5.144-7.2-.463-10.73-.566-6.71-.2-13.383,1.568-20.085,1.162-3.1-.188-10.066-2.9-16.4-3.966A28.606,28.606,0,0,0,215.807,211.189Z" transform="translate(-203.665 -174.098)" fill="#ff963b" fill-rule="evenodd"/>
      <path id="Tracé_3414" data-name="Tracé 3414" d="M248.332,183.868a28.743,28.743,0,0,0-8.4,1.249c3.6,2.057,10.824,2.795,12.5,3.019,3.012.4,6.284.548,8.87-1.048.036-.023.071-.048.107-.072A28.627,28.627,0,0,0,248.332,183.868Z" transform="translate(-207.662 -171.956)" fill="#ff963b" fill-rule="evenodd"/>
      <path id="Tracé_3415" data-name="Tracé 3415" d="M273.148,218.48a55.684,55.684,0,0,0-25.409-.439c-4.536.99-8.931,2.549-13.439,3.66a70.277,70.277,0,0,1-17.351,2.029c-.246,0-.5-.01-.752-.022a28.693,28.693,0,0,0,8.015,14.846,99.055,99.055,0,0,0,19.685-9.537c5.408-3.407,10.819-7.463,17.184-8.045,3.951-.361,7.834.669,11.746,1.478A28.946,28.946,0,0,0,273.148,218.48Z" transform="translate(-203.729 -177.409)" fill="#ff963b" fill-rule="evenodd"/>
      <path id="Tracé_3416" data-name="Tracé 3416" d="M274.6,229.426c-3.9-.577-10.874,2.853-12.581,4.3-1.524,1.291-2.808,2.867-4.454,4a21.822,21.822,0,0,1-7.067,2.7q-7.433,1.917-14.747,4.253a2.608,2.608,0,0,0-1.592,1.028,28.748,28.748,0,0,0,22.729,1.6c2.984-4.261,4.767-9.781,9.49-11.783.8-.338,3.6-.739,6.137-1.4A28.594,28.594,0,0,0,274.6,229.426Z" transform="translate(-206.706 -179.493)" fill="#ff963b" fill-rule="evenodd"/>
    </g>
    <g id="Groupe_3228" data-name="Groupe 3228" transform="translate(543 100)">
      <ellipse id="Ellipse_88" data-name="Ellipse 88" cx="8.19" cy="8.19" rx="8.19" ry="8.19" transform="translate(81.16 223.431)" fill="#133b89"/>
      <path id="Tracé_3417" data-name="Tracé 3417" d="M301.706,119.186a3.674,3.674,0,1,1,3.672-3.674A3.675,3.675,0,0,1,301.706,119.186Z" transform="translate(203.587 -71.838)" fill="#f58220" fill-rule="evenodd"/>
      <ellipse id="Ellipse_89" data-name="Ellipse 89" cx="3.673" cy="3.673" rx="3.673" ry="3.673" transform="translate(613.699 68.144)" fill="#336ad6"/>
      <ellipse id="Ellipse_90" data-name="Ellipse 90" cx="3.673" cy="3.673" rx="3.673" ry="3.673" transform="translate(0 187.732)" fill="#336ad6"/>
      <path id="Tracé_3418" data-name="Tracé 3418" d="M290.825,168.817a4.73,4.73,0,1,1-4.73-4.73A4.73,4.73,0,0,1,290.825,168.817Z" transform="translate(-4.532 129.433)" fill="#f58220" fill-rule="evenodd"/>
      <path id="Tracé_3419" data-name="Tracé 3419" d="M369.7,255.067a4.73,4.73,0,1,1-4.73-4.73A4.73,4.73,0,0,1,369.7,255.067Z" transform="translate(358.134 98.665)" fill="#20468f" fill-rule="evenodd"/>
      <path id="Tracé_3420" data-name="Tracé 3420" d="M425.075,258.19a4.73,4.73,0,1,1-4.73-4.73A4.73,4.73,0,0,1,425.075,258.19Z" transform="translate(439.3 -8.588)" fill="#f58220" fill-rule="evenodd"/>
      <path id="Tracé_3421" data-name="Tracé 3421" d="M129.7,285.567a4.73,4.73,0,1,1-4.73-4.73A4.73,4.73,0,0,1,129.7,285.567Z" transform="translate(-7.64 111.022)" fill="#20468f" fill-rule="evenodd"/>
      <path id="Tracé_3422" data-name="Tracé 3422" d="M238.075,149.69a4.73,4.73,0,1,1-4.73-4.73A4.73,4.73,0,0,1,238.075,149.69Z" transform="translate(158.081 -61.496)" fill="#20468f" fill-rule="evenodd"/>
      <path id="Tracé_3423" data-name="Tracé 3423" d="M217.695,196.332l6.305,3.6-6.436,3.365-3.6,6.305L210.6,203.17l-6.305-3.6,6.436-3.365,3.6-6.305Z" transform="translate(121.111 6.803)" fill="#20468f" fill-rule="evenodd"/>
      <path id="Tracé_3424" data-name="Tracé 3424" d="M332.763,168.651,336.88,171l-4.2,2.2-2.353,4.116-2.2-4.2-4.117-2.353,4.2-2.2,2.353-4.117Z" transform="translate(303.074 -31.874)" fill="#fff" stroke="#0c2557" stroke-width="1" fill-rule="evenodd"/>
      <path id="Tracé_3425" data-name="Tracé 3425" d="M139.927,247.067l4.117,2.353-4.2,2.2-2.353,4.117-2.2-4.2-4.116-2.353,4.2-2.2,2.353-4.117Z" transform="translate(9.985 87.309)" fill="#fff" stroke="#0c2557" stroke-width="1" fill-rule="evenodd"/>
      <path id="Tracé_3426" data-name="Tracé 3426" d="M140.861,180.433l4.117,2.353-4.2,2.2-2.353,4.117-2.2-4.2-4.117-2.353,4.2-2.2,2.353-4.117Z" transform="translate(11.404 -13.967)" fill="#fff" stroke="#0c2557" stroke-width="1" fill-rule="evenodd"/>
      <path id="Tracé_3427" data-name="Tracé 3427" d="M90.894,279.871l4.117,2.353-4.2,2.2-2.353,4.117-2.2-4.2-4.116-2.353,4.2-2.2,2.353-4.116Z" transform="translate(-84.541 79.168)" fill="#fff" stroke="#0c2557" stroke-width="1" fill-rule="evenodd"/>
      <path id="Tracé_3428" data-name="Tracé 3428" d="M387.733,233.766l4.117,2.353-4.2,2.2-2.353,4.117-2.2-4.2-4.117-2.353,4.2-2.2,2.353-4.117Z" transform="translate(386.622 67.093)" fill="#fff" stroke="#0c2557" stroke-width="1" fill-rule="evenodd"/>
      <path id="Tracé_3429" data-name="Tracé 3429" d="M407.894,299.538l4.117,2.353-4.2,2.2-2.353,4.117-2.2-4.2-4.116-2.353,4.2-2.2,2.353-4.117Z" transform="translate(392.264 88.059)" fill="#fff" stroke="#0c2557" stroke-width="1" fill-rule="evenodd"/>
      <path id="Tracé_3430" data-name="Tracé 3430" d="M387.733,233.766l4.117,2.353-4.2,2.2-2.353,4.117-2.2-4.2-4.117-2.353,4.2-2.2,2.353-4.117Z" transform="translate(437.622 -152.907)" fill="#fff" stroke="#0c2557" stroke-width="1" fill-rule="evenodd"/>
    </g>
    <g id="Groupe_3229" data-name="Groupe 3229" transform="translate(1277.202 278.43)">
      <circle id="Ellipse_87-2" data-name="Ellipse 87" cx="11.1" cy="11.1" r="11.1" transform="translate(0 15.698) rotate(-45)" fill="#f58220"/>
      <path id="Tracé_3413-2" data-name="Tracé 3413" d="M215.807,202.353c3.293.468,8.829-1.883,10.6-2.228,3.608-.7,7.313.134,10.99.255a11.042,11.042,0,0,0-1.02-2.281c-1.352.056-2.777-.179-4.141-.218-2.59-.075-5.166.605-7.752.449-1.2-.072-3.885-1.119-6.332-1.531A11.041,11.041,0,0,0,215.807,202.353Z" transform="translate(-211.121 -188.037)" fill="#ff963b" fill-rule="evenodd"/>
      <path id="Tracé_3414-2" data-name="Tracé 3414" d="M243.176,183.868a11.094,11.094,0,0,0-3.241.482,15.814,15.814,0,0,0,4.825,1.165,5.188,5.188,0,0,0,3.423-.4l.041-.028A11.049,11.049,0,0,0,243.176,183.868Z" transform="translate(-227.479 -179.27)" fill="#ff963b" fill-rule="evenodd"/>
      <path id="Tracé_3415-2" data-name="Tracé 3415" d="M238.177,217.438a21.492,21.492,0,0,0-9.807-.169c-1.751.382-3.447.984-5.187,1.413a27.125,27.125,0,0,1-6.7.783c-.1,0-.192,0-.29-.008a11.075,11.075,0,0,0,3.094,5.73,38.231,38.231,0,0,0,7.6-3.681c2.087-1.315,4.176-2.88,6.633-3.105a15.556,15.556,0,0,1,4.534.57A11.171,11.171,0,0,0,238.177,217.438Z" transform="translate(-211.384 -201.586)" fill="#ff963b" fill-rule="evenodd"/>
      <path id="Tracé_3416-2" data-name="Tracé 3416" d="M249.769,229.386c-1.505-.223-4.2,1.1-4.856,1.659-.588.5-1.084,1.106-1.719,1.544a8.422,8.422,0,0,1-2.728,1.04q-2.869.74-5.692,1.642a1.007,1.007,0,0,0-.614.4,11.1,11.1,0,0,0,8.773.618c1.152-1.645,1.84-3.775,3.663-4.548.308-.13,1.391-.285,2.369-.539A11.038,11.038,0,0,0,249.769,229.386Z" transform="translate(-223.564 -210.114)" fill="#ff963b" fill-rule="evenodd"/>
    </g>
  </g>
</svg>
